<mxfile host="app.diagrams.net" modified="2024-01-01T11:12:47.530Z" agent="Mozilla/5.0 (Windows NT 10.0; Win64; x64) AppleWebKit/537.36 (KHTML, like Gecko) Chrome/120.0.0.0 Safari/537.36" etag="6vizut7Rn5jfrdXWYMzc" version="22.1.16" type="device">
  <diagram name="Page-1" id="5XNaylJJS5qS0YuT8DcA">
    <mxGraphModel dx="406" dy="269" grid="1" gridSize="10" guides="1" tooltips="1" connect="1" arrows="1" fold="1" page="1" pageScale="1" pageWidth="850" pageHeight="1100" math="0" shadow="0">
      <root>
        <mxCell id="0" />
        <mxCell id="1" parent="0" />
        <mxCell id="6luIKK2zBfAn_R2tf_91-89" value="" style="rounded=0;whiteSpace=wrap;html=1;fillColor=#CC99FF;shadow=0;strokeColor=none;" vertex="1" parent="1">
          <mxGeometry x="330" y="30" width="5" height="5" as="geometry" />
        </mxCell>
        <mxCell id="6luIKK2zBfAn_R2tf_91-90" value="&lt;font style=&quot;font-size: 24px;&quot;&gt;小艾走不出去的迷宮&lt;/font&gt;" style="rounded=0;whiteSpace=wrap;html=1;strokeColor=none;fillColor=#d5e8d4;" vertex="1" parent="1">
          <mxGeometry y="60" width="240" height="60" as="geometry" />
        </mxCell>
        <mxCell id="6luIKK2zBfAn_R2tf_91-91" value="NEXT [N]" style="rounded=0;whiteSpace=wrap;html=1;fillColor=#F8CECC;strokeColor=none;" vertex="1" parent="1">
          <mxGeometry x="120" width="80" height="20" as="geometry" />
        </mxCell>
        <mxCell id="6luIKK2zBfAn_R2tf_91-92" value="BACK [B]" style="rounded=0;whiteSpace=wrap;html=1;fillColor=#F8CECC;strokeColor=none;" vertex="1" parent="1">
          <mxGeometry x="200" width="80" height="20" as="geometry" />
        </mxCell>
        <mxCell id="6luIKK2zBfAn_R2tf_91-93" value="RETRY [R]" style="rounded=0;whiteSpace=wrap;html=1;fillColor=#F8CECC;strokeColor=none;" vertex="1" parent="1">
          <mxGeometry x="280" width="80" height="20" as="geometry" />
        </mxCell>
        <mxCell id="6luIKK2zBfAn_R2tf_91-94" value="STAGE 1 [1]" style="rounded=0;whiteSpace=wrap;html=1;fillColor=#F8CECC;strokeColor=none;" vertex="1" parent="1">
          <mxGeometry y="40" width="80" height="20" as="geometry" />
        </mxCell>
        <mxCell id="6luIKK2zBfAn_R2tf_91-95" value="STAGE 2 [2]" style="rounded=0;whiteSpace=wrap;html=1;fillColor=#F8CECC;strokeColor=none;" vertex="1" parent="1">
          <mxGeometry x="80" y="40" width="80" height="20" as="geometry" />
        </mxCell>
        <mxCell id="6luIKK2zBfAn_R2tf_91-96" value="STAGE 3 [3]" style="rounded=0;whiteSpace=wrap;html=1;fillColor=#F8CECC;strokeColor=none;" vertex="1" parent="1">
          <mxGeometry x="160" y="40" width="80" height="20" as="geometry" />
        </mxCell>
        <mxCell id="6luIKK2zBfAn_R2tf_91-97" value="STAGE 1" style="rounded=0;whiteSpace=wrap;html=1;fillColor=#99CCFF;strokeColor=none;" vertex="1" parent="1">
          <mxGeometry y="20" width="80" height="20" as="geometry" />
        </mxCell>
        <mxCell id="6luIKK2zBfAn_R2tf_91-98" value="STAGE 2" style="rounded=0;whiteSpace=wrap;html=1;fillColor=#99CCFF;strokeColor=none;" vertex="1" parent="1">
          <mxGeometry x="80" y="20" width="80" height="20" as="geometry" />
        </mxCell>
        <mxCell id="6luIKK2zBfAn_R2tf_91-99" value="STAGE 3" style="rounded=0;whiteSpace=wrap;html=1;fillColor=#99CCFF;strokeColor=none;" vertex="1" parent="1">
          <mxGeometry x="160" y="20" width="80" height="20" as="geometry" />
        </mxCell>
        <mxCell id="6luIKK2zBfAn_R2tf_91-100" value="&lt;font style=&quot;font-size: 12px;&quot;&gt;FIND&amp;nbsp; &amp;nbsp;&lt;/font&gt;" style="rounded=0;whiteSpace=wrap;html=1;fillColor=#47FFBC;strokeColor=none;fontSize=12;" vertex="1" parent="1">
          <mxGeometry x="240" y="60" width="50" height="20" as="geometry" />
        </mxCell>
        <mxCell id="6luIKK2zBfAn_R2tf_91-101" value="STAGE 2 X" style="rounded=0;whiteSpace=wrap;html=1;fillColor=#947676;strokeColor=none;" vertex="1" parent="1">
          <mxGeometry x="240" y="20" width="80" height="20" as="geometry" />
        </mxCell>
        <mxCell id="6luIKK2zBfAn_R2tf_91-102" value="STAGE 3 X" style="rounded=0;whiteSpace=wrap;html=1;fillColor=#947676;strokeColor=none;" vertex="1" parent="1">
          <mxGeometry x="240" y="40" width="80" height="20" as="geometry" />
        </mxCell>
        <mxCell id="6luIKK2zBfAn_R2tf_91-103" value="&lt;font style=&quot;font-size: 30px;&quot;&gt;SUCCESS&lt;/font&gt;" style="rounded=0;whiteSpace=wrap;html=1;strokeColor=none;fillColor=#D4E1F5;fontSize=30;" vertex="1" parent="1">
          <mxGeometry y="120" width="160" height="60" as="geometry" />
        </mxCell>
        <mxCell id="6luIKK2zBfAn_R2tf_91-104" value="&lt;font style=&quot;font-size: 50px;&quot;&gt;FAIL&lt;/font&gt;" style="rounded=0;whiteSpace=wrap;html=1;strokeColor=none;fillColor=#a0522d;fontSize=50;fontColor=#ffffff;" vertex="1" parent="1">
          <mxGeometry y="180" width="160" height="60" as="geometry" />
        </mxCell>
        <mxCell id="6luIKK2zBfAn_R2tf_91-105" value="&lt;font style=&quot;font-size: 30px;&quot;&gt;STAFF&lt;/font&gt;" style="rounded=0;whiteSpace=wrap;html=1;strokeColor=none;fillColor=#D4E1F5;fontSize=30;" vertex="1" parent="1">
          <mxGeometry x="160" y="120" width="160" height="60" as="geometry" />
        </mxCell>
        <mxCell id="6luIKK2zBfAn_R2tf_91-106" value="&lt;font style=&quot;font-size: 18px;&quot;&gt;TING &amp;amp; TING&lt;/font&gt;" style="rounded=0;whiteSpace=wrap;html=1;strokeColor=none;fillColor=#fff2cc;fontSize=18;" vertex="1" parent="1">
          <mxGeometry x="160" y="180" width="120" height="40" as="geometry" />
        </mxCell>
        <mxCell id="6luIKK2zBfAn_R2tf_91-107" value="&lt;font style=&quot;font-size: 12px;&quot;&gt;FIND&amp;nbsp; &amp;nbsp;&lt;/font&gt;" style="rounded=0;whiteSpace=wrap;html=1;fillColor=#47FFBC;strokeColor=none;fontSize=12;" vertex="1" parent="1">
          <mxGeometry x="240" y="80" width="50" height="20" as="geometry" />
        </mxCell>
        <mxCell id="6luIKK2zBfAn_R2tf_91-108" value="&lt;font style=&quot;font-size: 12px;&quot;&gt;FIND&amp;nbsp; &amp;nbsp;&lt;/font&gt;" style="rounded=0;whiteSpace=wrap;html=1;fillColor=#47FFBC;strokeColor=none;fontSize=12;" vertex="1" parent="1">
          <mxGeometry x="240" y="100" width="50" height="20" as="geometry" />
        </mxCell>
        <mxCell id="6luIKK2zBfAn_R2tf_91-128" value="" style="shape=image;imageAspect=0;aspect=fixed;verticalLabelPosition=bottom;verticalAlign=top;fontSize=16;image=data:image/png,iVBORw0KGgoAAAANSUhEUgAAAAoAAAAKCAYAAACNMs+9AAAAAXNSR0IArs4c6QAAAARnQU1BAACxjwv8YQUAAAAJcEhZcwAAFiUAABYlAUlSJPAAAABkSURBVChTY6AP+PeJYf//Twz/QTRUiIERSqOA/yf5/kOZDAyanxgY+RgYmUBskG44hipiNP8EMeQ6H1ieCSwB5MDxNkkIBgEkNhNMJ5xuvAmm/9erw62HW42uGBnANFIbMDAAAFtEL9Vu5xAZAAAAAElFTkSuQmCC;" vertex="1" parent="1">
          <mxGeometry x="277" y="65" width="10" height="10" as="geometry" />
        </mxCell>
        <mxCell id="6luIKK2zBfAn_R2tf_91-130" value="" style="shape=image;imageAspect=0;aspect=fixed;verticalLabelPosition=bottom;verticalAlign=top;fontSize=16;image=data:image/png,iVBORw0KGgoAAAANSUhEUgAAAAoAAAAKCAYAAACNMs+9AAAAAXNSR0IArs4c6QAAAARnQU1BAACxjwv8YQUAAAAJcEhZcwAAFiUAABYlAUlSJPAAAAA3SURBVChTYyAdLHrxH45xAnRJXIoLJu1DkUDng4G9x5n/2DCGqSiSDAzUVgiUJEohMiZTIQMDAF1RcntvAIP7AAAAAElFTkSuQmCC;" vertex="1" parent="1">
          <mxGeometry x="279" y="85" width="10" height="10" as="geometry" />
        </mxCell>
        <mxCell id="6luIKK2zBfAn_R2tf_91-131" value="" style="shape=image;imageAspect=0;aspect=fixed;verticalLabelPosition=bottom;verticalAlign=top;fontSize=16;image=data:image/png,iVBORw0KGgoAAAANSUhEUgAAAAoAAAAKCAYAAACNMs+9AAAAAXNSR0IArs4c6QAAAARnQU1BAACxjwv8YQUAAAAJcEhZcwAAFiUAABYlAUlSJPAAAABMSURBVChThYzBCQAwCAPd3OEcwCEcpCVg+qi2HuSTHJEbVV1MVhWMEXHSypQARXev8v0GaRQptSJAOUqE8lcCZraYrHrwxGT1pr6JbEIJiEU6qy3JAAAAAElFTkSuQmCC;" vertex="1" parent="1">
          <mxGeometry x="277" y="105" width="10" height="10" as="geometry" />
        </mxCell>
        <mxCell id="6luIKK2zBfAn_R2tf_91-133" value="" style="shape=image;verticalLabelPosition=bottom;labelBackgroundColor=default;verticalAlign=top;aspect=fixed;imageAspect=0;image=data:image/png,iVBORw0KGgoAAAANSUhEUgAAAGAAAAAgCAYAAADtwH1UAAAAAXNSR0IArs4c6QAAAARnQU1BAACxjwv8YQUAAAAJcEhZcwAAFiUAABYlAUlSJPAAAAOISURBVGhD7Zi/axRBFMdHKwkKx5GrBAVtrKIcJH9AsLQMllZCCIKNFjZWNhaWahJJpaUBEWwkkj/gIofpkiKChdXF40AJdud9J/PMZPft7Mzs250r8oFhJvNj3/t+39wlm3NKqfGkiTA/P29Gx+zs7JiRPNlYHHXG54jRH10AzoBOp2NGxwwGA91LGkFxKdbMzIzuj46OdG9TR3xCSn9wAYoMyGIbgkQkTEBsxKWYly7c0D34/XdPxyTRthlS8YG0/qACxBjQhPkEcgB2HkDSfGn93gWINaAp84lsDk2YT8ToP296J74G0Dz20Q2Q4tHdh2rlzn3zkxvsw34p6tTv9QlAAs8fPNPj1U8bhQkA3AIy6smrp5VuIOISiH+rfRK3ffmiGZ0w/PnHjJT6NtzT8YmqedSl31mAVAZQXPsW0e1bv/eCjU0gh+W3j/UYXwVEzFdiE/rZAqQ0ALG5uK5bV4T9nUz4/F5oUn+uACkNsGNTXFAUm54PfPZQHr45gLr1nyrAtBgAuDwAnkG3iQPnuDOAzk3TBWA/ASCFATaUB0ev1zOjPAsLC2aUJyRuU/oLfwmnMsBmdXVdLS0tqdnZtplR6ubV67rf/XGgextu7fBwqDY3N9XKyrKZ8aNJ/SgA2yYGjAeDX2ObuSvXdOPg1nAez+GeX9a4+Pv7B4XxuTXp+JxGglsri+/1ImbzfmvLjPK41qT4/PGDGeVxrUkhrT+4AKkN2Hj52ozyuNakkNYfXIDUBsy1vuvG4VqTQlp/cAFSG/Bud6wbh2tNCmn9wQVIYQD+kokh9pwLaf1eBUhpwHA40v3a2hvdg17vqxmdxp6n/XS+CnXqLy1AagNGo7yIfr9vRqfh5rnzIdStv7QAKQ3AyxOeSSJwo8pulb0H53A+9CXMpm79zgJMgwEAIhYXb+s3WjS8HVMcu2Ge9mC/LX7yMvS/+dKE/sJ/RRBIuNvtqlarrba3v+g5CC0C4gEZIFEAO4d2u2Vmi4Fwik3gPBGSU936SwsAJAyoUgSKD8pyoNgcdj4gpgjS+oMKAGINoJuAZ8UUw84BII8sRcaDspvoQko/yObgVQBQ1QCAJPCMWDOyOfhSxXxCQj/I5uJdABBrQJYqhiAH4JMH4oCq5hNVLgCgs7b+oAKAGAOySBhCebiQMt6mygWgAlYqAJHKgGkhVj/O2fPRBThDhuB/xp0hiVL/ACCoa++h1wLTAAAAAElFTkSuQmCC;" vertex="1" parent="1">
          <mxGeometry x="90" y="10" width="30" height="10" as="geometry" />
        </mxCell>
        <mxCell id="6luIKK2zBfAn_R2tf_91-134" value="" style="shape=image;verticalLabelPosition=bottom;labelBackgroundColor=default;verticalAlign=top;aspect=fixed;imageAspect=0;image=data:image/png,iVBORw0KGgoAAAANSUhEUgAAAGAAAAAgCAYAAADtwH1UAAAAAXNSR0IArs4c6QAAAARnQU1BAACxjwv8YQUAAAAJcEhZcwAADsEAAA7BAbiRa+0AAAPOSURBVGhD7Zg/axRBGMbfqImSKCxLgoVgkSJYBTlIPkAwnWW0tBKTINhoYSMINiKpRE0iIYW2ByLYCJIPkIPDdEkgBxamuXhElCBGOO+Zm5dMNrs7M7uzO1fkB8POXW7meZ/nnb0/6SOidmc4YWJiQs661Go1OXNPVCuOIvXjyOI/cwPiAhgZGZGzLs1mU1xdBsG6rDU4OCiuKgcHB+JahD7jyr91A5ICuHThmriq/PqzKcJAIS5CgDZ00zQZaAOX+sC1f6sGmAZQhHkTbdYFrA1chu/av3EDbAKAMCg7fFWXKTP8LP7PyGsqNgFw19UQXPDw9gOav3lXPjoJarocVkSNz+8/E8MVRfo3ugNQABta/LQSWwCDQjiox6+f5DqB0GWgfz080g2vXJSzI1rff8sZ0dfWptBn8tZRlP/UBvgKgHVx6hg+fct3FmK1GdQw++6RmPNbAeATmaUOUJT/2Ab4DADarAvNtNOmI/qeDFCHSQ2gDP8nGtArAbiuAXAdaTWU7f9sZzztTrvs7u5SEAQ0NDREh4eH1O77SefPDcu/2oF1f//tUX9/vxjYD/tif+gkwTWg8IGBAVED9rGpA+axBmAfaMM85mkHoGz/iZ8B6m3It5/NaUg6eUB3BzCLi8u0uroi5uqp1BHVY0x1QVn+Uz+EfQYAoD8zM0PDwyFNTk7KZ81ZX1+nvb0WVatVmp+flc+aU4Z/bQN8B8D6zPZ2g25NT9PGtx35TDqu9Iv0jwbEjk4B7WbzR1tla2unPX51VD7Sg/XYJ25/3YjTf/liwau+a/9Gv4RVPn/8IGd+WHn1Rs784Nq/dQN8BzAeNMTwhWv/1g3wHcD7jbYYvnDt37oBZQXQed+kqakb1Gg0xAeZSvRxEqavs8G1/8QG9EoA9XpdzrosLb099q1IR6u1L2d2lOVfewf4CgDs7x83AO25uXtijq+jeIxrHGw+uoctRftPbYDPAPC9mc3DhHqaMF9b+yJqGRsblc8ewa/FOuyR5TcAKMN/YgN6IQBeBxPYCz+KYBo/bDCHTtwAeL1qHm8p6tBRlv/UX8IAxVYqFQqCkMIwEOYBAkiDA8jTACZagw5Vm8F6FdO6ivavbQBwEQDI2gjWB7oaWDuJLDUV6d+qASBPAHwasJ9tM9QaAOqIkhY80J3GJFz6B2oNRg0ALgIAKAL7ZAkjWoMpccZtceUfqN6NGwDyBqCuzdIAgBqASR0uglfJ6x/wevZv1QCQJwBeC/KGou6VhKvgVfIeAG5i5gYwvgLoFfL4x1r+W+YGnOIG63/GneISov9wWtU36lV4ywAAAABJRU5ErkJggg==;" vertex="1" parent="1">
          <mxGeometry x="60" y="10" width="30" height="10" as="geometry" />
        </mxCell>
        <mxCell id="6luIKK2zBfAn_R2tf_91-135" value="" style="shape=image;verticalLabelPosition=bottom;labelBackgroundColor=default;verticalAlign=top;aspect=fixed;imageAspect=0;image=data:image/png,iVBORw0KGgoAAAANSUhEUgAAAGAAAAAgCAYAAADtwH1UAAAAAXNSR0IArs4c6QAAAARnQU1BAACxjwv8YQUAAAAJcEhZcwAADsEAAA7BAbiRa+0AAAVUSURBVGhD7VpPSCNXHP6tiWiyptFEZIvbWrfuVkESSFH00rKCFNq1SJHSkxcPsmxZCr300h7aSy8WurRsYw+l0tvaIpWyPSwUuhQWRSFB0KJgl0YWupuYVBu1zZ/O95wXX5JJZox5b3roB4/3MmPm+/N7783MZs8RUV5rphgfH4/qQ4aFhYWAPlSCUn4jyNQky79pAThxOp0uInS73WWByAiglL+5uRldEQ4PD1nPNdVTh2z/VQsAchDDtPf8Zf3oMTKZDP11tM3GsgIQ+Z1OJ51v6qaGhgb97AlyuRzTAk3QAh310KDCf9UCRKPR4PT0dMTv95Pb5WXHEAJHLn903EsKgPMj9La2toIGQNQBQAs0QMv+/n5dNKjwb7oFiSIAIyGAjAAA8E9NTUWwAnghAOhQXQSg3v4t3YQHBgbYFgCIQlQVAfzvvHWDjb/95XvGi2I0nGtix0TsHW7Qmy+9oWnJ0cw3n9Ly8rJ+pnbI9G+5AHYEwG+AOzs7gY9vfEQveLsp8WdC424ib4eb/Y2I1B9pzfwR+Z7y0a+pbXrv8/eps7PzzPclmf5Nb8LoVQfAecUnj+6Lz1Gzo4k+GHuXcTsay2/G2X9yTMOHizN0mD2i7dhv+hltxmqzEX0tOmT6NyyAnQGAm/Ni2fPHTo/redZ3tj5tyM0BDTvJR2yMrQDAtoAtAbCyLaj0X1YAOwPg3CIvljpb8gbL3QrAnT5IMS27u7sUDoeDgUAgop8ug2r/RQWwOwD+xIExv9lBB+cuvelVA3gBcMfjcTa2Gr5K/0UFsDsAABrQcx0IAMDjJ3TwYKoBz+J4IoFhGL927XUaG3vNErdq/2VbkJ0BiICOxcUfIqOjoxq3lyYnJ9lxrqca+NKfm5vTNKRoZWWFrl+fZsfMoNq/4U0YsCsAEbdvh2liYoLa2320tbWlH62MiVdepZnZWerqusg+9/T00JMnCZqfnz81v0r/KIBh0wLIP34czwObm5umLXjpcv7evZ8KnwF8H9cxur5ZE/mtIPDspfxXX3ypfzpGvfhFn5VaLf7Ny6kDs8ms5TNZ+l2bqfyzHfg6PKuP6gvRZ6VWi3/LBbAKWQFYwRVPjNr/tnybkYLT+q9rAewO4JPvllmzC7X4r2sBZAWQTKb0UXV4OrromSsn73j4XiwWo8HBIbp16zP2JioTtfi3VAA7A0il9iij7a1W0NLSQnfuzOuf8KNJliKRCDve2Nho+PZtBTL9mxbA7gCSyYTeG4fw8GGMcaJ3Oh00MjJSpOHg4ID29qwFaATZ/k0LYGcAV6++HFxbWyuEYKThwoUOxnn//s/svN/v0948E2yM7wG4Bq7FPpwSsv1XLYDqALBMxdbb2xuFAYQgahAbzjscDhoeHqa7d39k5vHyFI8n2feAoaHBoHatUz8dqPBf8U2YQ3uJYD9ItLb6yOv1sCobAaRLS0vsfCj0onakgQWAHyRAbhYAAtde1YuWqfY2GsXSdblc1N/fX9BQCakUD+iYG8ZrDZ9Dtv+KBUAg6FUEAC7OA/T19bEes5sD5zDTzTXsMe5sNkurq6s1/RMIoMp/UQFAevPm2wGj2SgzgI2NjaLl+eDBUoQXoRTQgObxnPwPCQ7steBFW19fr2n28+BV+S8UgIeOZY+ez8ZSyA4AQEFQBIyrFaIU4AXOEj68Y6zKf6EA2OtCoRBb9iDHBQCVAYjgq8KsECK45rOEL3oHZPsvFECcdQAugF5VAJVQWohq4Jpr4eYTkIenH5buv+geIO7F/AKqAjCDqK0SzsLLJ2BpeLL9FxWgGmQH8F8APFbyIMu/5QL8Dxkg+heKUIB5XfWUBgAAAABJRU5ErkJggg==;" vertex="1" parent="1">
          <mxGeometry x="30" y="10" width="30" height="10" as="geometry" />
        </mxCell>
        <mxCell id="6luIKK2zBfAn_R2tf_91-136" value="" style="shape=image;verticalLabelPosition=bottom;labelBackgroundColor=default;verticalAlign=top;aspect=fixed;imageAspect=0;image=data:image/png,iVBORw0KGgoAAAANSUhEUgAAAGAAAAAgCAYAAADtwH1UAAAAAXNSR0IArs4c6QAAAARnQU1BAACxjwv8YQUAAAAJcEhZcwAADsEAAA7BAbiRa+0AAANfSURBVGhD7Zg/iBNBGMXn1Iua3MGyJIWkSyWIIIFEsAxXWqa2Eo5ga2EjCDYWthIOrKxTWh5nn0BQbK67yjSJIUEJYoSYN9mPTDazf2dnJmJ+sO64t7vve+/b3dnsAWNssVwiqdVq3mhFr9fzRmbw68vQWZMu/5ENIOFSqcTXxHA49EZrdATg18/n83wtMpvN+JpqyrIO3f5DGwBxCMP08a273tYVP35deiN9AYj6wF+DCNWDWlBHFjWY8H99ubxaDbcZDAbMcRy+/P4zYjdvFL2/MD6m5ej2HbY4mPL9crkcX+NYVUh/Op3y80IDdfhrAfg/th8eHmZWgwn/oQ0AOFGhULASAMA5yuUyv8qoEfP5nNdiogbd/iMbAGwGAKD/5tlrdlJvsC9XX5l7fH9Lm4B+6/FT9ujeQ3be+5SZvi7/sd6C8CxEAKD98X3ksxgBgBfvXio9i2kCBNB/4K513fKRN1oz/vbTGzH2eXzJ9QnVOnT5j5yECZMBkK745kET8dmTt1JtAjWcfnjOxzQ5gjQTpAn/0gbYDADaMt2wqy4I8c2IiPOGZNL/VgNsBiBqky5Io00EvS7GqQHo9r/RgF0JAKjWEaQLdukCkN4BwEYAIlQHIasnCL8ekUTXlP/ASdhWACLt9hlrNpusWHRZvV73tsan2+2y0WjMOp0Oa7VOva3xMOU/sAHAZgBA1E9LVvo6/aMB0mVZwGI4/L5QAcfjPLLzRy3/g/615T97LLJvgGX2DbDMP9EATGRpSHucSWI1wGYA4/HEG6VD9Xig039kA2wHMJmsTCQNgfan49Oi239kA2wGgHfnfr+fOgQch+PT/AYgdPsPbYCNAJbvzBsLgAmcK24I2A/7qzQfmPAfaw4wFQACr1arrNE44b9AsQCYiFuDqJ20+UHo9B/5KYJAMI7jMtd1Qj8NpA1A1ALQq1QqiT5D+I2rNsCE/60GQBQHYZ30O0yWAUBfNA1ktUATQBdkpQ1M+N9oAIWOj0d0+xNBhegIgKAmADQCUDMIvy5QDT9J8Kr+txpAt77YSTIPdAfgh65GakQY0AWq4cPTxcU530Z3IfB7B6r+pY8gGSYCCCOoLhFVXWjgBQDh07l0XwChk7CIiQB2AfiU+dDlP3YD9ugh1u+APbpg7C9+z5Z7rbUB6QAAAABJRU5ErkJggg==;" vertex="1" parent="1">
          <mxGeometry y="10" width="30" height="10" as="geometry" />
        </mxCell>
        <mxCell id="6luIKK2zBfAn_R2tf_91-137" value="" style="shape=image;verticalLabelPosition=bottom;labelBackgroundColor=default;verticalAlign=top;aspect=fixed;imageAspect=0;image=data:image/png,iVBORw0KGgoAAAANSUhEUgAAAGAAAAAgCAYAAADtwH1UAAAAAXNSR0IArs4c6QAAAARnQU1BAACxjwv8YQUAAAAJcEhZcwAADsEAAA7BAbiRa+0AAAffSURBVGhD7Zl/TNRlHMffmqVhCO5MCiwF8aLGnEmTmjAkxGE/NG0mZf8oZaP+qCVBtTTt51BntuZqMaaZpVvT3GyJPxpUUpKkzmgKIqEkhoGAhqjJ0b0/d8/t8bzv8b2772FtvbZnz/N87+75fD7vz+d57vu9GwCg19n+5xrxn0pAYeHLyMzMknF5+TfSpzcPk548vOFV9+i/Q0AJuJYC0HZe3tOw2xNkXla2GwkJCTLneMpPF7H76CF5jYTDl3DEbzoB11KAbU++g+9jz6K4+F2Z19U1oKGhATk5Uz3z0tISFD/7AnCkGReqmj2+WOVHuOK/ztmWuobGUIATkReRmztH5gy4vb0dqakpMnc4gFVVW/FcUT7ssTG4vTsC945KxhPjs7DxkKtSgoW2p44bj+np9wLH/gCuHwhbfSsSB0SgztGNtrZ2SUZ+/kIUvfs2sqdnY9AQwD4+0eOHFT6EK/4+d4ASYEhqrOtCkrN3Vhmpi4+SXlVjUdErniokqhKDrUKftol7fQX9YCVSGPvgoa6L4fTBwvj97gBDAVrPSWfruCjNkXArbLbhGD06AbZBNwAjIuU9g0ZFBl2FV9kmtMu13esr6ENZ/a9SlSVfbER25O3uV2CtD2GI3zAB11oAbt+7HrjbPdPQfdCaY9hNciT09ECOJx36UHeoPiD7/RX/QHfvkyuMK9T2ZzVojV9I3IbqLkHH5zp+UMEbQh+c7cIn1Z6x/bdOOYKM4HpcNxD6I36fCfi3CGAWnrWEZ7G6PQyF/ozf7w4wi9UC6Ki1iT7WYYXxNdouvv8x91UXRp+xklDi7zMBoQqgCPQYCoZlQ9PcI+sINX6jzygs2QGKcAgQCMubX8cbXz59VdB9iWAVwcRvaQJ8CRDu4PX1C158AUuKV4of/SW6jnf83r0v/CaAH1RHhz4mnH+wcdUVi+sChAIfXPgAw7VVb4aG775zj0JDt6+OF6KPifc8mALwmQDlQKDoAugOmHVGJxAf9PXPt/zuHrmuBxMH8S4CMwRTAEEdQXRqyJIH8dLexZ65QheAKOf195iFIijEplfFkSHPu396cGIbfSdWrlqNwthl7iuhoReBsuvLB31uFL8RhgnQK8AnnRXS+RPA8LMB4EsE9mzKtiO3He331cl4Ytej0nvDNfSEmmX/0M0Yk/GboRZMiMJfARjZ9/tbEB+d+QjNR2ly+eQ5abro5FL8aXRENrkm1XYk2GJcYycNZ1qk8Rr7QH4OUPAzN9xRi5g7zmJA8kBcuK0Ng9MG4u+us9I6j/8p72s7fhjRYzqwf/8lsaeCZgzBiE8qfj6FW2IH4KHHJ6Ky/ORVWrCxAPqK38i+6f8Dlj2Tgtn3TJQsk6jRN0tPdAFI47fx8uSnZ51PgcGKoKAP/sh98XPpS0tLkd4cHbI9nVDjNyKgf8T8CbDko2rno7jrGAiHAIT2eacRETMKBW9+JdcWLlwovd1uR0FBAY4ePYoVK1aID8uXL5fXrCJcBcAEmGpOB3q7aj/t7e0o7120aJG02traXjJjxgxpal5YWOhzjWBbamqqrL99+3ZZX6HsrV27Vhp94vuI1T4Yxa98UNdo36xtU/+IEacAONt7K0YmZiAxeSqmTZsmra2tDQsWLMCsWbPQ09ODTZs2Yfjw4cjPz0d3dzcqKyvdK4TGvHnzMGfOHPnVkTZtNptc37dvHxwOB5qamlBTUyM7gKSkpODAgQOW2fcXP3ffzJkzkZGRgZEjR4oOPA14rS/7phNgJAC3eXp6uoyV8R07dlguANeJi4uTNaOjo1FfXy+tvLwcq1evlgQ4d4DY3bBhA86cOWPpEdRXATQ2Nkr8ehGMGDHCugT4EqCkpAR5eXnIysrCwYMHPcbDdQZPnjwZmZmZMqYQ3Gn0xbn7UVRUJKJQHIrP99Hf/iqAEydOSBHMnTsXixcvNl2AphNAdAF+2voa3nrjOdhuOue8GR6DCRMmYM2aNWhpaRExuBOsFMB5pl4hPrc9BWf11VWsxOxH7gMuNuLGrsOortiI9AeeQm5urmXHIO0TXwUwZcoUKQJWPI9eHj/2mGYkD/4LwyJa5VbWCNNPwt4C6NAgW1JSEtavXy8J4HuKi4s9joeCvoa3bf4Gr6NuCXld3ZWFioqdjfZzcnKkANg45y4gQzu/wald74n4ZjG1A5QA8fHxHgFqftwMe9TNuG5QD3qPH8SHm7/HkSNHsGvXLrS2tiIxMVGq04rvAbXzGKj3EUAxtlXUYe/XH+Pb3Tux//Av+PlUHKqrq+VIIFbY5xnPo5aiK8rKyuR/4GPHjskOqDn+N041VYouf538AyWbP0NXVJZf+6YSQAcInVACxCXdj21fvo8fftwrQf/SeAnjxo2TY4FnsBKAwoV6FF2+fFkC5FoUgVufdyVM8rp16+TLL2rUJDR1RIgICn5p0udQE0D78+fPx5YtW+Ro1ZO/Z88esX/69GmJXSWBmlD8vuI3/SDGgJcudeWKu0DdelH05ORkua7Q7wR4JrJyQ/1Cpn0SExMjNokvu4S2+V1EqqqqpA8F2k5LS5OHPn0HMPlE2SUqbkVfNyQBPQnzvrezs9OvCEQ5xOogVoigUIkg2dnZ0vPO5/z583IEKqy0SRj7pEmTZDx27FjpiZ50hUq+wp8vASVAoYvAZHhjZfX5g6Lo7Ny50z0KD7o9FqIR5uMG/gHmrByLUAvHjgAAAABJRU5ErkJggg==;" vertex="1" parent="1">
          <mxGeometry x="220" y="220" width="30" height="10" as="geometry" />
        </mxCell>
        <mxCell id="6luIKK2zBfAn_R2tf_91-138" value="" style="shape=image;verticalLabelPosition=bottom;labelBackgroundColor=default;verticalAlign=top;aspect=fixed;imageAspect=0;image=data:image/png,iVBORw0KGgoAAAANSUhEUgAAAGAAAAAgCAYAAADtwH1UAAAAAXNSR0IArs4c6QAAAARnQU1BAACxjwv8YQUAAAAJcEhZcwAADsEAAA7BAbiRa+0AAAq1SURBVGhD7VoJTFRZFj1FQRWyM7iUrMrmTre7Ni0t2rgldrRxmUx0bKP2JD1R0+M+Y0QN2i2GqFGngYyCGUftcYzOaI8i0LYKLnFUQDZB2ZFCEFFAtipq/r3Ux5LGoqgqoCeZk/y8/99/7917zr3v/fd/lQSARjj+jz7C/2wA4ldEoFkmgVwmQ0r/GqjVasyYMZPvXb/+E3btCuPzXzqMDkBfCEA2JTIpILXAWIUXHn7khJCQYOTnFyE3Nw+ffhoMS0spX0dHRyEi4lttT/PDXPy7FYC+EkC0GzR0BOSTXFHrao9D584gNHQx/Py8uc3NxOvw8vKCt/9QQKVGePheTCqxwewTm/m+OdAT/C20pV6Q4atrIvHJsNEIWToTU9Z9hihpNtzd3aESyHp6ukMuDFWcVwioW+Ht5gp7mTX3MxU0BtsNDWbx4atA5PcnsX37H1FaWso26QiWOMO7+DVQWgkkZ2H7x59xP3P50FP8hXBiZ9tp5xAF8J85BpYeDizANydjsWPHdqSmpkOq0uBVdQ3GvbaA86smgDIktQBB7v5wb7HBNPcPcDItQTta9yDalo9TtFV4D0Jt4xt4jh4FBwd7WKolLDrbJVgK+fQrO8DBBqiug+VgO7P50FP89QagLwW4uGwvZowIeGubIIwZ/sP3GDBgAAoKijChTnDfQlhFxUMQB6pW4IlS20FwSevD5MGjcDo9SVtrGHqD/3sD0NcCfDF2NobNCtBevUWzxwAEBwdx5jm7OAFOttDYWkPiYg9NkwqSgufalm9BPhRmFnYrCXqL/3ufATKp5bvGtQgMnIZp0wLh4+4JDBnIh8bNpa1saHnHuAgah8YzFEQ+yHuk9updNDc3Iy8vnzNPk/2M7TX9PY3Pm/71EJoWQYBOQOPRuIait/h3GoBfggAiOo6Xfu+eYD+P65sfvc32pgdKtC54haasZ+193udLV+hN/u+dASL6QgBd0Li6oN1N2q27XK+boRIbCSQWUmg+r2vv07FvdyCx6lwac/PvMgB9JQChIwG6rmt8ha+sf56dqs9b0Wphz4c50NnyQzA3f70B6BjJ3hSAoEuAbFf/5wliknchrvaotrat/k1jPeJ+E4cDcw8iZnms9o55IHInGMqfgkFtaRbp9u8MegOgG0kayBAB4kJj2g2L05jOm9UqNMo1Rk8J8uGocj/+sD0MX678QlvbVn/sfDRWHzmFxOf2GHb6sPbOW3Qlgj7oJoGhCSBfY8P9aIbo9u8MXS5BIgwVYNXC37UbppIcpPMb+VlYfOxPnc9rPaDA6QqoaVWj6M6dtnNtva2LHWS+MlhrBJEO3mrPQIJo35gEeMeucN6dBDB0FnQZAHJcF10J0FDX0F5PpbHkRVDgaAyCrYUdqgqfwEK7paN6IvrVD19D4tiM0CYpGr4705aBwsOQ7NbeK+XyalmmsjsJoOs7QfTBkAQgkA8Nj0ohGzNQrwadBoAaioZJABGGCPCPw2fQnFMBWLcaTV7Xvi5+r9iEv0T9Fc7ufmi1Eu4LNogo4/UtzPIZwweJpJ7/EkkFD9h2d+0TRMGJf7vQBiYAgXx4OTaXly19GnQaAGpIHTqKYKgAslXydwToLnld+7rBoPJD1Ry0CuWrCflsg4iKh8dPH/FRV1aEiielyHBMZtvdtS9CtCsGozsJ8EZZhvKCLPz5RYzeBBDen9//Ofrsqj1seZbbKAW9yZFDKaWPELBYzlng4O4CG4UbtyVo1G2ZUq8sQWWBEn+7mqTcceRHo8gTyD45TiX5kFiYgWEzq/heP+cBXNoLPoioLX3BZXVpHi5nFRttW7RHwtF1T/LXGwARvS1AZzj323CkD23B/PnzIZVK8eOpLVCp1Xyv4c0bLu3t5Jx99fVvEBZ9n+uMhRh88bwj//5eI1D/uspk/gYFgEACpPSvxvLly/m6pwXQRUVFxeCYmJjyuXPnYs+ePfD390dYWBjKy8uhUqlw+vRpbhf2dQhqygoReeAQ1oZfHDxo0KByvmEGEP8sPw2WLFmC2tpaeHt7I/abX7MGpvA3KAAkwL59+8oLCgqYPGHLli14+fJlrwiwefNmFj40NJSJjxo1CpaWlli2bBl/FhgxYgS3I1+uXbuG48ePo6ysDDdv3uR6UyEmwKZNm5CRkcG+WFlZISoqCpWVlSbx1/t7gAgLC4uNubm5GDp0KIYPH46BAwdi//79WL16NaqqqrBo0SJMnz4dKulgpKQ/R9LdQhw7dmxjcXGxdgTTEBQUpBRs2iUlJfFvr0Te2toaEokERUVFGDJkCNc/ffqU6z08PMhnZXJysp12CJNA/GnGXbp0CUePHuUknDp1Kg4ePMjl0qVLjeZvUAACAwPR1NTEXwIpy2xtbfmaAtEbApw7d84vLi5u4+PHjxEZGckzgcifPXuWg0EgP2hGxsfHo7CwEMKMNYttgpgAgqhwdXXlJBT4ISAggGfZ+PHjuZ0x/Ltcgmj6fXf4QPnyFSvgOcSXDR45coSnnkwm4wwQHOS2FISUlBQO1IYNG8yyBInTf/LkyUhK+DfWCLPOx88P+U/zERMTjZkh8+Dj48NtSQDRh7Vr15ptCSQfDh8+XL5y5UqsX78evr6+mDJlCmd+/pMcnDp1Ch8IwbCytmvnHxERoe2tH12+CUftmFf+ZdBAeA9Qolh4CfkkcBL8fDxZ+HXr1rH4JAAdcrmcrykw5DA5rh3GaAgZX75161b+Adzm9U0o1MLDTdhzkz90TfX0XKCD/hVBOySasdTPHPbFBCBe9EsYiUtLC81CWg3Ij+3rZ+DhlW/bbRN/Q213GQCNRIaGxga0trRgiFMJCuMPwaqm7XWbok0CuLm5sQDBwcEcCHJ24sSJLAI3NBGZmZnIzs5GS6uUX7DqhF0IHeSbUqnk5ZAOyn5aFkkkEsEc9nUTYOfOndi7dy8vueRTQV4273pIG4IxCaD3GUAD3Mmo3JiRFg+vfnaoKX2G2Iv/RGaVG5ycnNiYo6Mji0BrIwng4OCAhoYGJCYmcnlH+93EWBAZWvuvXr2Kino7lJfdx93kFNy7fQf19h/zTuj27dsoKSlBTU0Nt6O/q1AC0JJkin3if//+/Y2U+bQJoR2WsK6zHZoFkx1KoG5txPOsJ8guLsGw8fP4GVBdXc3+CH5tpCTVB70BoKc/ZXVmURMyHyUgNfcx0isUvAYSaDdAIs+ZM6ddBDquXLmCCRMm8PaMtoOmQJhNyrFjx9qlpqbyrqeq0RG2gwLg++Fs9O/fnzOR7CsUCp4FfsLzgZbCGzdu0D1lfn6+0Q9j4k+z+fz58yw+JRxxdnFx4QBUKlNx995DPMjJxrTF4RyYy5cv49mzZ6yLMAu7fBDrfQhv27ZNuXDhQsXu3bu1NewULzcEcoh2BLQnpwcSQdwNxcbGIisrS5mQkGDy23BISAh/EhCEVdBWmDB69GgOCPlDSEtL45LeVYRAcHtTbRP/cePGKU6cOMG7LeJNdnWRk5PDs4PaUEn2ya/o6GiDuHe5CxLJiyARtKf8XkCgIBBIDNoCEoRlQ3nhwgWTxdeFri9Cxiv69esHZ2dnvn7wQPvFTIA5gi5CtClw5DFHjvz5r2FConEpBp+26YZyN/hThIiOAdEFGRZhbvE7YsGCBe/40dP2RN60/HTEixdt34AI3Qs+8F9fZvHT9WZRagAAAABJRU5ErkJggg==;" vertex="1" parent="1">
          <mxGeometry x="190" y="220" width="30" height="10" as="geometry" />
        </mxCell>
        <mxCell id="6luIKK2zBfAn_R2tf_91-139" value="" style="shape=image;verticalLabelPosition=bottom;labelBackgroundColor=default;verticalAlign=top;aspect=fixed;imageAspect=0;image=data:image/png,iVBORw0KGgoAAAANSUhEUgAAAGAAAAAgCAYAAADtwH1UAAAAAXNSR0IArs4c6QAAAARnQU1BAACxjwv8YQUAAAAJcEhZcwAADsEAAA7BAbiRa+0AAAg2SURBVGhD7Vp7TFZlHH5IXISEsM+JkhoikqbhFT5HNDPQUVpq6azZlumyabX+UOmyuWy1rObW3Nw0G8uM1h+uC6vFN6WiqYRymakN5OYtBQwUEExW8sXz67xfx8M55zvnE8G2nu34vue9/H7P7/m9l8M3wwD4e57/MUD4zybgm6ffwf74dsyZk4kff/weD5yPxqN5r2u9/x2EnICBECAn51Xxl5iYiPr6emRnZ2k9gM9XGGgnn/fff1fruTnoy/iZAEdPjwD+goJ9/hMn6qTUQ9/OcWbzQ330fhVU3VgS/cGDpR76dpd+TRuvewZSANpQ0PuifeNjxqWvOOjtE0Zfxj6Od+J7UM8/m3oeS/QYwXvvbUZSUiJaWi7B44lFdXW9bPXa2npcunQpUHZ3Q/o5zuudgblzs/DHH104ePCAZs0duM3HPZYRsFtaWi6+vK23ISksstfjae2Cr/ZX4UK+5BkTE4snwybi86Pfa1bd4WbHb3sHUIDw5alytiYnJ8o5S2SHeaQ0g8/fIiXPZ0X0r89KXZ+P6oxdteq5f857+pwQr/X2oOq8VtHB0E8u5J6b+1FIZ3R/xG+ZgIEWgCvvOt8Keh9W0HFTgri9mPsr/tu0shfUDX+dAHqndGZ8FLRxnMf5DIL2nILBE5z74OEuqQdgFrgehn79fGXXCXqJT4QYP3W0it80AXqifSEASRBuBHhzSIaUEV5dYAr0YfUYoOYre07QnwvAcgcMpAAKvYIPEaHY6a/4LRNADKQAtwL6I37bBAw0CmuO4uqh3qvKDTifdm5V2CbgVhLALY8b5U30R/y9EsCLImt8ivb2LwZCAAUzW8Y2J2NuBG5tmY2nrsaL2HIHMGsqEaEGxzHKDku3fwgZ4VQEp+OsQJ563k5jNUK1KTtmCOkOsHNGOCFsByWAHuqdtq3s6/vM5vflAjDjYMXLDr0SEErwRmJ9EXyw8bSp+Jj5NCIU/2ZxGGM1QvEhzOYbeZjuACfBE8qZ/t0MboNXeLsmv1cQbsH5tBMKrHjrBVYaqHc7mNmzPII42Mwg29TdYAb9HNaL4lrg9Xq1FvfgfNrZH99qyscM+vGcHyrIW/lXsONgddazzSqZtj9H19/RgVGIlXqiJ07K+otNgTpB4yohrH/UXoKn3n4ZpV8VoTlzJIYPH46IiAh0d3fj3LlzMs4pRo0aha6uLlR0/Ybc3FzUR3aitugX4UBhus9clrrxPXz5NKxZswYbPtmCixcvorOz07Vvip+RkYHJkyfjSuKdaCyrQ/LGJ/Dutx8jtnOwaMCHMev10OujuHEHWvm3TQAFODG4VQSgUxWcEoEPRSY51kkwKSlJfht/JOdZ5OXl4cKFC6ipqXEtghJg9uzZqKqqwtatW7Fy5UoRwLvyUaxduxbF7XUiDp+cnBxJ0IcHv8ayZcswf/58REVFYfHixSEtAJX8a9euSQwv7ngLpaWlSE1NRdKi+2WBGePno9eHi5Ha2cVueQS9+fwMbNq0CePHj5d3ZpECb9++XZws+PQ1cU6w5Dt/vGI/f4KdNWuWCM8VlJ+fj927d4tIbrB69WqsWLEiwGHDhg1SFhYWorq6WvrS09Ol5DvbCfXjH+exj3bcgDzJl7zJn3EwHsbF+GjfLH7qwn7qpO4dcqCO1NMMljtgzsx4eKNakfb4S7Kqi4qKMGXKFJSVlaGtrQ0JCQnIzMxEZGSklBRgz549suX37dsnWZ82bRoWLVoEj8cDT/gxTL69A9GRzSgqb9C8mINkX1kwFYPuTpe5XL30P3PmTDQ3N8sK5y7bsWMHysvLsXfvXsTGxopA5NfR0YHTp0/LjiH3lpYWzPfUYUR8mCPfLyxIR8I9UUBEgsR36tQpnDlzBsXFxTImWPxKLy6YrKwsDDmWi8rzDaa+LRPAwSSc/OdJtEdPhN/vFyJOBJgwYYIIQNI8Arh1k0aHY1D4NRT/XBJUBCZ/6cvr4Im6jON576Dwh8/Q7h+JYcOGYenSpcjOzpYgmRgGSN+qjXXyvHr1Kvzn8uFpLMPEtAQMn3Qffirc68j3Qw9nYnBUNHxFVWKPxx/hZgEwQWPHjhXxvyyrwBsflosNI2zvAJWE6oYwOYfdCsBdwBXxTOad+LOzHW2nf0dF5TFHIsyeOw9Xmnou3y++QnnDXdLO4Ddu3Aifz4d169ZJncml74ULFwZ4bNu2TcY3dESj7XI1UlPuFUGdJmBS/DhZLHfHXsEHuT5ZTHFxca7ip15MRN3JYkvxiaD/L4iXIZ0TPM+2bNkiAvCs4xnJuhKAXx6qrtDU1IRHpv6lvcGWjB7qzFTiq3uA53lycrLU6Zurjmcy/RI8Cnbu3Cl1nt3EjJH/XIBufRPfHQkPxE+omO3iX79+fcA34z906JDUzWCbAKP4hFMBFAEiGAkrKP/KN8FLccSIEVKnb/oiJ3XxNjY24vjx41InyONG/SuQRygLwM5/0M9QfsrpBeCnGYOsra0V57yYSkpKZDuyrbKyUj7beHny+CFC+Q4nOCcmJgZjxoyRd4pPLFmyRLb75s2bpa2goEA+S9l25MgR+duDHAjyCUV8QsVPKA308fOri+8pKSlyFOrjJ5QGdvE7OoL4PU4oAQh+3hG7du2SkquOxxPhZgs6geKg9x8M5HPgwIE+8W08ggnGqPgYtSDULgzGIWgCiGACmG15hRsVQIEciOnTp0tJVFRUaDXz9r72TZgdiWZwugAcJYAgiaFDhyItLU1rAc6ePSu3vRF9FbgZ5s2bp9XAzz/yF/S0B+LgZ+HNgj4ZCvzsHj16tPYGHD58WP5WCK4D8De4C8CowBeJSQAAAABJRU5ErkJggg==;" vertex="1" parent="1">
          <mxGeometry x="160" y="220" width="30" height="10" as="geometry" />
        </mxCell>
        <mxCell id="6luIKK2zBfAn_R2tf_91-140" value="" style="shape=image;verticalLabelPosition=bottom;labelBackgroundColor=default;verticalAlign=top;aspect=fixed;imageAspect=0;image=data:image/png,iVBORw0KGgoAAAANSUhEUgAAAGAAAAAgCAYAAADtwH1UAAAAAXNSR0IArs4c6QAAAARnQU1BAACxjwv8YQUAAAAJcEhZcwAADsEAAA7BAbiRa+0AAAQeSURBVGhD7VpNSFVBFD5pRApCaRtbFFzFTMFAAxe6dCHxKsJaRhstCFoISaugrbhoERWluyCIkHCTVq6CXEjZLvGBbxW1SHLZJp7db7znMc2b27tz75z7DPzgdGfOmTffnDN/5147QEQ7oWTC+Pj1qEQ0N/c0Ku0jCTJPAII/O/skqhFNTNzIZRL0SQf+54nHBGSSMBhKNjY2dwCUbe18Cfo3Ic0pKFZlKuHASAYDfWOiFxffqTLXpXkhzKeLrZ2jWJWpBAPKMxB6XZqXOUx44LQqnQUDwarEapQMhE3AJ8mLfgHmYPHkr1XpLBhEPYIPyYMbfZv9o551EhrCfzIjJKepqTtUKpUiTX7IixtZlplpoT4//zITd+YJ0AOAweSVDoIXAszMTOfK7ROp3wPYeR15Bn9s7AoFQRBpqC4LwEQa7sZQ7u0Wk4MDUCicp6GhYSXt7cepqamJ1tY+Ra1koAe/qyugtrajSsplyn0MPvx3noB6BoBXHRwHtw4ew8rKB+rvHxAdg0//ne4ADgCT60CdjwRuJwHcNzjzi8VSlUAPuxSk/K9KjeIk7LiScuFpim63/T6LoE+kfD8eXqhwmAI97PyWbOsnizAHP03R7bbf2yTxJRx2qrbe2dID+jlyX602E1h9rcuT9DG45f1CBP/suQba+v6Njt1cUB/9+CjgCxgfBbceXaRj4VEw8brsnV/Cf6cjaPTXvHry9sOAQIonwHpu5wvsPIDgAuAdHR1RnHjy0cN2tMfvfELC/0SXMAeg8/c6Nbe0EJ0uUHd3Lw0ODqgLqLMzUHWUm7++V7851HfZ24WMS7Wnp5fKpwrUNnxV6cClo1IPx1Zs7KHt7W1aX//ihV/Sf6cdUOydIrr0WJV5thmVemhX7TzDdvHFAe34QvQJCf8TT8BeCADOfRYbatmzQMp/px1Qy8Fa9qy4NjlNq2+X1bmLtFMH6tDDjnYSqOVfLbsNThNQzwAg0+kIjqjym4VX6mmC9WiX5QNZHCT8TzwBeyEA7YeJ+lpLtPr8dtVxgDr0sKOdb0j577QD6hUA5NPIq5eWlunui0169nn31QVb/czJjsqWhx52tJP4MCfl/19vZnESpmKVPz4woOs7EagnA3aJN1H0ZxuDWWZuCX4J/53ehAHkw3pGgLNPL2PrYfUBEm+i3De//OjQbb53gJT/B6NnIsQFgM87MwC+AceZ19Y/25KmgK6Q8N9pAgDc9Pos69CD4/v8ZSC47LDOwStUKvjMpftoAjZ9fEmQ+BLGAECK7YZvLzwQc2DSAH9ckKHn40AaNv/525TLAnTKgpJAcvUnDa7UJPAi9AnnCcBFA+irkAcmGXyAueMCzHpuJ4E4XzkeabirUqN/CdIrBsq2NlICPpY0dikBH8OV28t/T99HWhD9AQBZY7+t793VAAAAAElFTkSuQmCC;" vertex="1" parent="1">
          <mxGeometry x="250" y="230" width="30" height="10" as="geometry" />
        </mxCell>
        <mxCell id="6luIKK2zBfAn_R2tf_91-141" value="" style="shape=image;verticalLabelPosition=bottom;labelBackgroundColor=default;verticalAlign=top;aspect=fixed;imageAspect=0;image=data:image/png,iVBORw0KGgoAAAANSUhEUgAAAGAAAAAgCAYAAADtwH1UAAAAAXNSR0IArs4c6QAAAARnQU1BAACxjwv8YQUAAAAJcEhZcwAADsEAAA7BAbiRa+0AAAbnSURBVGhD7Vjta1NXGH+SNNowdU0aXYfQxr5NJ2OsU1s7hkIHauvbdAMRwZfJWttuOufYPo4x8NOE4aw6/As2mAaR0mmRIaub1rIv2tmmWSbIoDVpR9u12KTZ+Z3cc3vvzbnNSxPDRn7w9N6ce87zfs7znFqIKMoojxzBqjzzyBHyAcgx8gHIMf5TATh+/CPl7f8FFOGkiDlAOv4sCLJnp8ej7e0fSr8/C8qS/dLBOMqEA8AjVSNaW9ujR4++z2U/Ob876vP9wcdkc2UkZKYq10hYn6UEkA6qtFAHCAKPp0+fRsPhSFLOgAwY29XVzZ9PLu2PRn9oiQIYAz/ZOi1hHWROTEwkLddImbBf2CILno39+ZxRHNgiqq2to507d5PfP0S1w99R8fJictUfILu9kAoLC6mv754yOzE2bKgNEdkcMzNhOnjwAD1+/JfpesjetettamxsJJfLSXV1G2llw3sUGewm60tbKRKJUm/vXbp7946yIh4tLa2h5uZjjt7ePuro6AiVlZU7EsnVIlP2Q4+tWxsdDQ1v0caN9WSxWOjOnV+VrzHERQURQ5Yh2oKAsPcEfz58OJRyFoCYMkFkE7LRLIMxLmQbIcYgP5ldAHkgvGMukGgNKNP2Cz283mucl0EH/eRMOkBGWIP1ZmthmEy2FvieqhMgD0ikM75ny36ZDnFt6KJFi6iiopyRRxmZgxiz2azk8Xj43FSBrTs7O6v80oMpxo8ej6eUJicnVYpE9POFHpjLgsDfk4GRjwzZtB+2G6GrAXDAnj3vUE3NqzQ19Q/NzMxwstkKyGq1KLOInctFFAyOUknJi7Rs2bJ5z2ItWBGitrYPaGBgAOdqiJ3jDuUTR03N69TUtJ3xDtHp06fpyuUr9NOtHqqsqCK326XMigHyi4qKuA54shqj0rp162n9+g06verr32AOrKbbt3tMz+5s2g/ep059QosX2+nGjW7V9gL+VQNEdnDQT+fOnaWJ8XF6bunz1N7WRqtXVyoz5oC5yEKrVb+RRIZ3dHzDn4DW+Z2d10IXLnToPcqADEF2+f1+amk+Rvubmuh8Vx89enRPKh9zka0nTugvaIHAn/wJvaAL64RU2QUFBawZoDjZAtmyH7aVlq7kO/bSpW9V+boAPAsHmDkfGXL40BG+zYeG/PSj93uyWWbJU7qUpuzlyqw5xGTHHxOAGPd4yjgvr/fyvLIFsm1/Z+d1aQKoBeJe72+8SKDAnPnyi+hrZZ7o48nIvAVpPmAOeKFYogMQHYmMIL9uzSu8Q8K65k0uTkY5+J4KtDrI5ArKof1zCuTSAaJN6+8flMrAGAgdiBnMdMMaln267sNIubJfLcK4KB0+1uqwWGJbe+eRz2j7oU95wQHQQTB+bEsHqLjYyceMwBxtsQKwHhenFSteIIfDYVoAUZRYMQ25XMX8soZ1sbPUwuXiXA6FRvlFRsgXOgnCHGOxBlAwR0dHqb//gan8TNgvQyL71QCk4wBA64SFOAAQOrDnFFPN4fP5WRcSppGRJ8zwIRpnRdHpdKryBwaGaGzsb941QbdAIECrVnnikiAZ+ZlIAEFG+dBxbGyMHjy4bx4AIFUHoEXz+QJcMRAKXWVlRZwCIyNBGh4elraeRuC70MPnG5yCLiC8l5dXONxutyq/p+cXWrJkCdctGAwyh0S4vrGstXA94CQEKBn5Qi7kmdnvdhcrWT3Lg6JNAEFOZ5HOB2IX9PT8HBeAuDZU0yWgWnOEw2EXLh1btmxTsiKGmzdv0fT0tPKL6OpVL2/N1q5dzTsEAIoiMPimbb8SQdatMD0Y75f5O/iCp9JV6LBtW5OrurqaqqrK+ZGBnZGsfJn9AHywb99+tcOC82EX7AV/IyAbEH7AU3ZxiwuAgNYBrIDQjh27uBEAmIsW7MyZr3ibJdqrixfP08mTH3NFRZZgXTq3ZhmEA+BYwCxQe/e+S3Z7geqAVGHki3tMQ8Mm/i6Sqqurk/8W9otEFWPAmjVVTA871xt3BoyzRODfgITase6AOx/ADkAvff/+7/w3mOLmCAiF8duYJVAKPMBrIdBe5bU7UQb04NADpEmQtIAEFL2+Nqlgk/CNsB+/ERgk4tmzX/PeXwC7xYiEAYDiMAAkLjJgLLB585vKWwzGLIGiCNxCnYDgaZ0A3vPxw+4EMBc6yHZKMoBcZK4xqQDhF6GH8BXsBeG3ODUAWdIkDAAUh+O1t0gwFv8ow27QKqAdxxqMGdenA/ApKVmu423GzzhX6JcOYrxKOC8QnG9ml9ZXYhzztGuNuqBU40KQMtjFSWWkdYTZeCaQCu9M6qHlBaTKbz5d0g5AHplBei1CHhlDPgA5Rj4AOUY+ADlGPgA5BdG/uMJ716zOPtQAAAAASUVORK5CYII=;" vertex="1" parent="1">
          <mxGeometry x="220" y="230" width="30" height="10" as="geometry" />
        </mxCell>
        <mxCell id="6luIKK2zBfAn_R2tf_91-142" value="" style="shape=image;verticalLabelPosition=bottom;labelBackgroundColor=default;verticalAlign=top;aspect=fixed;imageAspect=0;image=data:image/png,iVBORw0KGgoAAAANSUhEUgAAAGAAAAAgCAYAAADtwH1UAAAAAXNSR0IArs4c6QAAAARnQU1BAACxjwv8YQUAAAAJcEhZcwAADsEAAA7BAbiRa+0AAAa7SURBVGhD7VhbbBRlFD69gFSgtEMpi+GytrSAouFWqDEGsEppEVoBH+QJDVEElIsvPvJU4yNSWiA8GxPCpSFNUw0PIhKBWkICqbR0WeqbgQ0ECg20u/7f2Tnjv7Mzu7Pb0o1mv+TsP/Nfzncu/202h4giSrLIEHLNMosMIZuADCObgAzjf5eAvXv3m0//HeAQHjNRAXCsHw/Zs+erSHjoUUZtSIPbsTItGasAYLyIU7uT7Nq1J3L79p3IvdZGtmHHjs+4zqmvm6TKaZc0/Y+tgBJIqsaPRQAgMH54eCTy+PHjyLNnz9gWp366gKuz83yEcXpn5N6JbTwOdV59EV5wQp9Tn0SSrv956uegEoYylnbv/pKWLFlKJSUzqKioKNTVdbXAbHaFIqPNm7dSVdVSevmvXyh0+RRdvFdImzY1QgetWFFFV69eMXu7A3paWprpxo0eampqChHlFdTUvIemhHZUV79F69fX0fTpxTTSd54mf3ycFixYRIZRzG2lpT4qLCx0tUHn7erqpkCg35PfgtH6z5lAxpDBtrb2yM6du+5DpC2ZINO3bvXzBBxu28cldIlgJnqZDbABQIl3L3agL/QLP/jsEBtEr5MOzH6UqfgtMkr/ow8gB9yMdBP0H20ARNKxQZx34tWBdrcggA86UuEVwZjR+B93DZ00aZL55A0TJ04kv99PeXlRVeXlfi51oK68vIz7JsPISNh8Sg4VUGpo+JCf7bzQMzg4aInfP5f7qiCYPWIRDodT9h0Yrf/WGbBy5arQ2rVrChYvfpOePHlK3d1/oDohJADY5yoqXjVro0AAnj59Qs+fP2cpKSlRBhSwk266ly1brvbu1+jatW66cuWyWRvlqapaSatWVcNOS7DHwnkA+7+O3t5+avr2O2o7c4Yu/HpRBaCSiouL6dKl3+L44bthTC+oq6unnJycGO5EGAv/882Sjh5tMYaHh/kwss8EEAG5ubELZuPGBisAdvT1Baj5yBEafPSQpkydyoe7W19Bfn5+qLe310DfoaEhnjHgbGzczO1+/zwu7XBaNQMDA7Rt90H6onYZ/dDeTsFgUAVpvuMsh++qUIc+MTfQ3Pw9l8CL9N9KAIAAdHT8PO4BEOiBADdmF5au07LW0d8fNJ/+BcYVzJpKeTlh+qntJL1e9Tbr+WT7p+zbiRPHzZ5R2JMwXv7HXENx9cLVE8sxGLzDAaivr6fly5dQWZlfXeuKHOXBg4dcxiKHZswupR9bDtGUyS/RzNnz+Jrmm/kK77du2xBsMAzDc/AB4UYgcnPxD3u07u+Bu3T3wmG6H/idPtj+DU2bVkhb36+l0rlzHPkz5X/cyayWHJ/ayW4WduAqpwPjP19tsOAZ7dWL3kh420CbWoXWrcIOO4cOjEG7Ux/U9fT0WddsJ26RcfY/ljxZABJhLAKQjB86hMPOhTFo1/vgyxZy/fpNT8Ef7wkQdw0FsO/JtUoHlriT6MDhA5E2uQXcvPmnupn0UkdHe8jcb1MG9GEvFQ7s/Sh1oB084IOoYLK0th5R51v63ALdN4gdYpu0J/M/5hAW4LS2771QZncWicJ+VlFRxgmDBAIBUjOOBUBAABCjTBYAXATUWAN6wQmdKMPhEVIziPXCEQB2Qv/ChfP5HUC7cOnwGnid3w7YIdyC8vJ5NGHCBPMt6i9sgMg74OZ/XAJw8uuzH6QAgm8nlwAACAKSFgzepVOnTrIj3GDCawDQD9fhLVs+4gRDp3A7BVb1NTZsWG9NgHPn2nDD8cTlBOHHFVMmFoA4YBZDP9oEuO2sW/cuPyNpCHxnZweXegzc/I9JgNr/zNtHdPZj6WDWAQi0rhiOI1kCMbamZjWdPXsa9+i0gyCAvmBwgLndAgubsRVVVnq7MXkB/AJfZWWl5RfsOHasldsxEcT/Awe+5jpZHYgREoTx6psqaQziNnr9YwF75+HDh5hYFAOSTbwLmex7wL59+62Pl3RgbgMcUAhWQiLo20Wi7wwvQELhE4KLgMq2Czvwjycg/uNdkh49b9pDtbV1/A4d0JUMcZ7pziCwCAaUQvRlJUGCAHZjsZK8GOAEOAhuSSi+B9wAO8CtJz9dXkD8gr+wQdeN1a1jzZp3zCfiiQq7kQSJi8QqEeK+hBWhMWfOLOvdzHbcXqbXq37IPh6tsT6fTwzg/qkCY9WsMnDI+XwzXHWJHWrlJu3rBU5+iW6zjnXr9un1+niJVSLgsxH3UQvqjsqDAS8KdOhjgVTH25GKLaOxOxncdI8FZ1wCshhfJD7dsnjhyCYgw8gmIMPIJiDDyCYgoyD6BwPA3qODyw8BAAAAAElFTkSuQmCC;" vertex="1" parent="1">
          <mxGeometry x="190" y="230" width="30" height="10" as="geometry" />
        </mxCell>
        <mxCell id="6luIKK2zBfAn_R2tf_91-143" value="" style="shape=image;verticalLabelPosition=bottom;labelBackgroundColor=default;verticalAlign=top;aspect=fixed;imageAspect=0;image=data:image/png,iVBORw0KGgoAAAANSUhEUgAAAGAAAAAgCAYAAADtwH1UAAAAAXNSR0IArs4c6QAAAARnQU1BAACxjwv8YQUAAAAJcEhZcwAADsEAAA7BAbiRa+0AAANjSURBVGhD7ZqxTtxAEIY3iYR0ZcQbUCCkdFBQkDIFBalQ2khIkDwBSps24gkSeIOIikggJW3oQg9S7jmuIvHn+Cdzln3euds9H9J90oDXu+zMP7O79gFPQgh/ClvSE0+r70t6YlmAnlkWoGceXQEOD99VV8109S8iPISjrRDYeF/W1T+LMfft7e9WH139Kaxrbq/vZ8WXj4VFUUwejo8/hNFoFG5uflV3/9PVPwvMvb//Jmxvb4WNjRelj83NrTHD9/r6WlhZGYTBYJAlhtT6owvQdwKYf2/vdVhdfV7axcW30t/OzsvSrq9/hoODt+XY+/tQtlP6z6m/cWvUrQig3N5CbRltkfoYYK7Ly+9j/ifBOManjsH6V1tGW6jdNE+DNd4cMybrMwHy7yGH/xz6XW9BbK8YYsd5WFvzzekdH0MO/dEFWIQE9Eku/Y/mc8BwOAx3d8OqNRnGMf4xEF2ARUiAYpBZ7P2cvmPwxODaAX0mAM7Pvz7MXT9n1aafcTnIod9VgL4ScHb2pZyT93DO1raHHPfpZxzj+bmU5NAf/feA4pXqIQEnJ5+quyGcnn6urv6hFZA6Afjngw5I7NHR+/K7IBatTGJM7b9rAYBXv2sHKPkIldWTAIzLAcIwROLXxqFYNCYHbbrwKyM/nh3gKoCSrwRgtIWqnysBYBeBjePq6ke5QzzivUgbfoVyYE07NQZXAYTdBRadwbkguXb72zjoUztnEdBnj0D82YWAUSSKwLHVhbsAtvpNEFyuBHAGt6FCwKRxs2AXgJLPzrMLAdNiSP4MAFWXANrIlYCm3dW0IHLtwiZdJFuFFx79rgLojLVFmGcCLPhFOCuNVTgP6rraTgOPfvcO0BZTEeaZAKgnnuvd3VdVb/cRmYNZ9LsKoDcAW4R5JgB/gA+Kz0rj2hpoXA7kA9r0e/xP9QzAyaQE5AT/GDtA1/V2bibp9/qPLgBPdFY91AVby409X4lHJjzn77Q06VY+gHhiP4W7d4DgSW8TgCGe1zQFkhrNLxApE/TnKgK6NH9d+7Rvfq4C2F0gJJ4AlBzG2KSkQvO3JVj3bZFSYbUzvxJe1+nV7t4BCqTuSOI5B3OhudsSrPvziMEugracxJDkv6P1m0KYJohY7Ef7Jh9d/SlIrXX57+m9EsJfaE3x0u6uAtQAAAAASUVORK5CYII=;" vertex="1" parent="1">
          <mxGeometry x="160" y="230" width="30" height="10" as="geometry" />
        </mxCell>
        <mxCell id="6luIKK2zBfAn_R2tf_91-144" value="" style="shape=image;verticalLabelPosition=bottom;labelBackgroundColor=default;verticalAlign=top;aspect=fixed;imageAspect=0;image=data:image/png,iVBORw0KGgoAAAANSUhEUgAAAAoAAAAKCAYAAACNMs+9AAAAAXNSR0IArs4c6QAAAARnQU1BAACxjwv8YQUAAAAJcEhZcwAAFiUAABYlAUlSJPAAAABqSURBVChTY2RgYPgPxAQBE5QmCLAq/PuR4cD/TxAaKsSA1er/J/mgLCDQ/MTACOSCTQTphmOoIkZzIAcErvOBxZnAEkAOHG+ThGAQQGIzwXTC6cabYPp/vTqYBgG41eiKkQFMI7XDkYEBAGzwKdj5eULvAAAAAElFTkSuQmCC;" vertex="1" parent="1">
          <mxGeometry x="320" y="30" width="10" height="10" as="geometry" />
        </mxCell>
        <mxCell id="6luIKK2zBfAn_R2tf_91-145" value="" style="shape=image;verticalLabelPosition=bottom;labelBackgroundColor=default;verticalAlign=top;aspect=fixed;imageAspect=0;image=data:image/png,iVBORw0KGgoAAAANSUhEUgAAAA8AAAAPCAYAAAA71pVKAAAAAXNSR0IArs4c6QAAAARnQU1BAACxjwv8YQUAAAAJcEhZcwAAFiUAABYlAUlSJPAAAACcSURBVDhPY2RgYPgPxGQBJihNFkCx+a2MCpTFwCD85A6UhVscBECa/wMV/P+/7iQcg/j4xEEY7GyQyUKTloKYDAyBZmAKxEcRhwKYOAig+hmqEQbQNaIDVM3rT0EwkQCsGRQI7/KiwQKEAEgdLNDgNhNjALJGEEBxNj4D0DXCADzoYRhf9KBhrIJwA/BoBGGsgmBMQOP/gcoYDAwA6jCLNqnoysYAAAAASUVORK5CYII=;" vertex="1" parent="1">
          <mxGeometry x="320" y="40" width="15" height="15" as="geometry" />
        </mxCell>
        <mxCell id="6luIKK2zBfAn_R2tf_91-146" value="" style="shape=image;verticalLabelPosition=bottom;labelBackgroundColor=default;verticalAlign=top;aspect=fixed;imageAspect=0;image=data:image/png,iVBORw0KGgoAAAANSUhEUgAAABQAAAAKCAYAAAC0VX7mAAAAAXNSR0IArs4c6QAAAARnQU1BAACxjwv8YQUAAAAJcEhZcwAAFiUAABYlAUlSJPAAAAEDSURBVDhPhZKxboMwFEUvyZaBGWXgH1grMfcTWPsdWQhLviNDlm6M6UiRujJEkZhYQMmCFKnd4/iZZ8vGiXqky7u20cV+JgAgpAx5nrMDiqJg5/O1ydgB77tPdhMUqCTDRN/3RjS217VkmBC/MKKxtT4ZHUbowKZpvFAddhd7E3g5rk3oQj4chmFQdRxHVV8R/H2oev1Zq6rxAon/wjTzMGIptSVTVRXCMEQcxzRUlGXpXcyhPuMtyLBa3HgGOH2nzsU4PaKePevdXNQzu3da3m9T1zU7IE1Tdj7yo+yAJEnYWUfW0JG7rlOiNrwiiiK0bas0f8/ZMknu0pt7JmqNOwfxABymyQg8lgFiAAAAAElFTkSuQmCC;" vertex="1" parent="1">
          <mxGeometry x="320" y="20" width="20" height="10" as="geometry" />
        </mxCell>
        <mxCell id="6luIKK2zBfAn_R2tf_91-147" value="" style="shape=image;verticalLabelPosition=bottom;labelBackgroundColor=default;verticalAlign=top;aspect=fixed;imageAspect=0;image=data:image/png,iVBORw0KGgoAAAANSUhEUgAAABQAAAAKCAYAAAC0VX7mAAAAAXNSR0IArs4c6QAAAARnQU1BAACxjwv8YQUAAAAJcEhZcwAAFiUAABYlAUlSJPAAAACDSURBVDhPY2RgYPgPxKSBRS+gDCCIk4AyEABkIAQveoHAyOLIGF0OUy0OCRyGFkzah5fPBCTAoODDNSgLAtD5uMCEPCcoCwLAYWjvcQbCQwMHo2RQwogYdXAXwsDBHSZQFn6ASx2GgZQCTAORkwQ+gEMdhoH2y55AWfgBLnVU9jIDAwCEkU/XmexsHgAAAABJRU5ErkJggg==;" vertex="1" parent="1">
          <mxGeometry x="340" y="20" width="20" height="10" as="geometry" />
        </mxCell>
        <mxCell id="6luIKK2zBfAn_R2tf_91-148" value="" style="shape=image;verticalLabelPosition=bottom;labelBackgroundColor=default;verticalAlign=top;aspect=fixed;imageAspect=0;image=data:image/png,iVBORw0KGgoAAAANSUhEUgAAAGAAAAAgCAYAAADtwH1UAAAAAXNSR0IArs4c6QAAAARnQU1BAACxjwv8YQUAAAAJcEhZcwAADsEAAA7BAbiRa+0AAAcDSURBVGhD7Zp7aJV1GMefs+WcU7edtUuyrbmrO9PZ2gxjTpCsxMgSCpQuBF2k/4qofyJCIiSK/iiCqMB/gsBAZgm2i11EN6mxDbI60zm3nW1e5tzZTXLu1Drf57zP8ee79333vmfngtAHfry/+3P5Pb/LmbqIaD6Y/idB3JELsGNrg5ZbSPPJU1ruziCiBUiUA0RucUEBf43oHx7mbzz0MMKpXEcLkCgHqHKLiovI46kkr7eH61SkfrB/MOZ6mOFUrq0FSKQDIFvkAjPZQJUvQI9o6ABiYX9yMO0PZY0RB9TcV02Z7kxLB+TkZNPY2BhNTkySOz2d093BMX0+n9bDGUbOByJHxcj5GOf6dz4qOsTKfssFSKQD9LIBZEI2wFdSZ0cnne/tY8MFGQenRUuHWNhvegQZOQCIEipNx5q13C3UcbIlnRwFkL9t6xbOY7zMp+aBarAK+qh9fznZ5lh+POw33QFlRffytgOYAJEEEG1zgQBHABLKRqC/jEMa8A3ZjkAxXuYQY9Q8QPnzD/bQ4w9vCKctxZn0Y9cQ7wb0FR2c7oJ42W+4A9TVV41W8wBlOEDF3zdMb3/Vxnl1PL52d4HIBzJW8oKRbEF0kP4y3ql8VX+g5oGRDk7tT9K+hqiDJS+gbOQAd2kBHXgldHQAGR8pIteObEGvQ6SIbHwlL5jp4NR+ywUAIjheDlCjH+jlLiZbj5Xxdoi1/QsWINEOwBbFVgWvbc4NyxS5kcjGPHaJt/0LFiDRDgCqDgDjEVFP73sjnIzQt6ty7Z7/8bbf8AhKpAME9H3nh6Ocbx+4wN8DnzZRr9cV/B7nsh7Uh9qbuCzjMI9T2fGy3/QOSKQDhMPN/XR1/FetRFRRUcHf5u8a+atH6qUfwHjM45R42W95CSfSAQLGHvP+SVd+7yX/z5/Rq/dfoLva3tRabwf1aEc/9Me4pcqOtf2L/i3I2zdByzLmaHN6NiX/3Uepg99Q0lALPbBzr9bjFl1fvkSb1vipLC+bHfDF6VNLcoDgzquiDl8n6/Dgk8/R1mf3aS23A53KKhpYNqLu0vQaGhoa0lojI9b22/praH19Pa1ZfYne37mL8jaW8zPLDPwQUR3Q3t6utUQGZOfm5tLo6Cjr8JhnPdWvLWE99EAutj0iH7JlXDR0iJX9iy5AIh0gst1uN5fPnj3LOiwGZK9bt47zfr8/KjrEyn7LBViKA2TcUhwA+XBkQfBdPhx8RWAugPmk/syZM1RdXc3t0A9yAWTLONRHKl9vR7QDwPQO0DsfJCcn0/yye+iKP4nyizdRqaeBLo+7aEPtIzQ7n0UDF2cpLbOUVq5cGXbA3Nwcj+vpMf4buhkif8WKFTQ1NcVOlHlramqoo6ODrl+/zn1hoM/no+3bt7O8GzducDklJYXbIT8rK8vxfVBXV7fADrv2Q2+Ar5V8wwV4akcx7akponMTSWyMGOTEAUh5eXmUnp7OdWlpaY4c8OHrk3RxulYrEV27do3ll5eHtn5JSQnLbTwwQ3+N1nEZuwFyAXTLzg792wGc8My2E3S4ZZbLdkAAwPFIYHAw9KPKSQDA8aLP3vXL+TLHpa5i+QzdtTbAkyMJohCEATgARwDKcIB6TAjv7mnRcvaA8YdOPqSVQtvYjBc/KtRyxHogCeo4zId5naDqLfZgTtgJeyEL9gPxh/gHiO/gRzMMFwBPJ1wkSDi7rM5PKwe893JtKB16VKuxB87Zxk9eoIP7n6CGjKu3Laaeg2+Z7yqMw3jMg/nsnN8q0FtsEPQ2qvbrEd+JL42epKY7AJ3tvOHNHKAa+/HztY6NB3jSSRAAOBSXqoreAWiXBRPjMY9ToC/0Fsz0twoAwcqXi/4QEwoLC/nMw8WGcx3A0Jau0DkvwAE4/1Yvn6GNgRRKTllGjd83U+/Y1QXnnxno94f3NzradjqsOOTjUsbc/f39nKAP7gYpI6GMfmjDnYO5zl/uoW+PNtsKKKGqzE3/jE/R2uBcgyc66afz5/jyVe0HXze5wvcdEPuBnTvP1g8xIK8Sq+NABdGHy1xwYrwZu3fvDr9K5Hkp6J+rR44c0VoiR6+/3TtE/CQ71wrbOwCrWVlZyUbiFYBIwC0vLwEIxSsFSY0+SdEATzm8bBCBeJoi2mEkdodajwh08uIyQ6+/7ELVToA61S/YEa2trdy2GJavID1YVf0tb7TKVq+WpYB5kSTKRY5ZfbQxmhf2q6cC/GP3lAC2dwBYtWoVVVVVhQ2VSEdyuVwckUher1cbEV1ycnIoNTWVo3x8fJxmZ2f5fyagPhAIcOTdvHmTpqenuT7aYE7Vzu7ubq7HzsBpgN8A2IVdXV225du+A4DH46H8/HzOz8zM0OTkZMycbQZ0EFTZZvXxALIzMjI4QMHIyIhNHYj+A6HOTB1koFxkAAAAAElFTkSuQmCC;" vertex="1" parent="1">
          <mxGeometry x="90" width="30" height="10" as="geometry" />
        </mxCell>
        <mxCell id="6luIKK2zBfAn_R2tf_91-149" value="" style="shape=image;verticalLabelPosition=bottom;labelBackgroundColor=default;verticalAlign=top;aspect=fixed;imageAspect=0;image=data:image/png,iVBORw0KGgoAAAANSUhEUgAAAGAAAAAgCAYAAADtwH1UAAAAAXNSR0IArs4c6QAAAARnQU1BAACxjwv8YQUAAAAJcEhZcwAADsEAAA7BAbiRa+0AAAfASURBVGhD7VptbFvVGX5IbMeJ7bhxkzqJQxrSj5A2zjoqoJSQEdjUDgk2qV3HJAqbQEJ8/EAM1D9FrGjbjzFp+7FN+8P+8AMJUWnTKBoSG2z9QKnWjZGE0qZpEseOGztxbFM3cWKb3ef4nuTWc5zr1tcW0h7p6Hzce/2+7/O+55z3nOQWAF8q5SuHw4cODanN6/Dm22971eZXAjfsgEoRIOWaM+m8cparqsXzcumRi2LlFu2AShGgldt3373wT/nFeC6WlpcxHZguix5iIAfFytXtgEoSQNmU2+ppRVfXdoTDYSSTSfXpKiiXaGpquk6PUunAutT263JAJQmQsjs6NqPr9u2oqakRsi9fHhfPOztvE20ha2kZQkflPY6xPzExWTIdjLC/Sq3XhJYAr3cnHA47PIoiEiSAkARQOAmw2erAb/itjJ5ioZVttpgRUA2kEyiXhWO55Mv3+E0pdTDC/oIzIJcAaTghI4DGjqvRpiVAPr+ZKNx3Xx/uvfsuEXH8bYI6BFWCiUVFjpQtdcyNTj4/PXgW7588pY7oQznsL+iAShIgjWckMar42wQj7cizD4o28dNf/0XI1uqYD6MXLxUdBOWwv1opP8k2rwcJ2GCrcy8raxkJqK7mq8CUbwo/fvp+7LmjXZSPTl9cIcBR70A6nRbvacFvl5NL6OnxDn06MuJWhwuixdXgbmxoQHNz8/+Q72l2ot5uFeXrPbdi+FIEVqsVM1dmhA58j7UWV+NfIDAdcI/5fOpIYZTL/jX3gFBw2msxm/NGHwmQ5egL+8Vzvsfn8r1c8Lf4m2q3IGi8x+1eiSpCK1sL2ed7jDRC1kQ+XfSgXPbndUClCeAyEY5ERFTx+7Vk50OuPOpSrA7ltD+vAypNAPHnv32ICSXXZnnm4Z6CsuXvz8eGEAr/S7S1MrWE6EE57V9zCaokARLUwVQdQLOrTh0BXjz2+kqR4PQf+ex9HH3iIH5x9DmhR67hgZmZopKActlf8BxQSQIkqqquV/67h1/DqZNXlPpVdSQ7/Y/84Dv4fOQC2j0tSKWviXGt4TwYFYty2F/QAUQlCZCYu7iauYxduKykecDd93xDHcmi+46diMevIj41o46s4kadTxht/7oOICpJAPHPy2Mrv7vw91dx6HY/aiKnRZ948nu9SMxEsKu1Da/8/g00OFeTDcpmJN8MjLR/zXOAxI6tDdigHC7aW5pR47Tj4zdexhbbDAb29QOZ7IGjq9OFzHwMlug1/OrECZjMW5TIyWYPN0vA+bEoHBuB3c4mmKwW7LhnD+4c+BZqbbXqG0B6NoLQ8BiqlSPlW4PTcDk3ifFSkG+0/es6oNIEEJ9cmEXamkAmnoArZUZyNoFqswlJpc9C2anFJD6Z9mOTw4xPfTF8kUiURLbR9uu+jn724NcwsKMbuzuydyEbt28WNaElIBhbwIeji2K8FARo8cNHulFnsYg2yZBILS5hNtGIxNKS6J/460lRlxJG2a/bAUQlCSD6++7CbR0dcDdnT/O8ehifmMBGlwu1dpcYi8fjvI8ZOn78uO47H70wwv51lyAt6ps6YWvcClfbTpjsbZi7asbnEzGkLZuU9bEJVrsTS5lb4PV6h86fP6/rzqcYeNo2I3EtibQiIxa/hulgSIzV1jlgVo76Ho8HqVQKPp/PPTU1pX5VOhhhv64sSCKVMcEXCMPnV4vSbmvfCseGTWhvbxc3gSaTCcFgsOTRJ3HsR+OwKFG4uLgIm80mbh4TynpP0Any0swIrGc/i0uZjYpO3gMHDuj6+0NRDiByCVDIRmtrqzC+HHjroy5B8rZt29Dd3Y3Ozk5xZUA89+3/iNpIrBUAkUhEcEAufvPikm4nFO0ALQFcb3ft2oUXHvkMM8qOzz4VMRKHvzkmal4/y8Jlh3jn422iNhL5AoCOGB0dFRzQCe/+2ytmgp6VoGgHSAICox/gDz9/DEcevxO//WM9eG/Ou3BJhlF484MtamsVTbYwXnvmfhx8YDdeerhb9I1CvgBg1Le0tKw4gXr87PkHcWzfTjx1+IGCs6BoB0gCkgtRbLm1CW5XLR7d07sS/fS8UThz5gxGLi1gQsl8BgcHV4qpKoU2d73QxRIKi75RyBcAjHruf/UmPx7rtAg9qE+bsxbzofGCs6CoNHTv3r1ik+UUdFkm8Pr3HxX5MPPgI396F1diDeI5ZwHJMgrUo4PpqDubaETCAUWf7L+J8GD2u3eM2wv6+/uF/bl7nlgBlhPoaU7ipYceEmO/fO+9dXXR7YD9+/cPRaNRb2Njo+jHoyEhjPkw82B7Rz/803MiOo0kX2JgYAB9fX2i7ff7EZ0LYk6Zgf84dVaMGQFuqkqke6XjtfuenPlmZfa1WIKirScQdC9Bk5OT3rq6OihOEIUp2fCVGkzFNyJh7UJN7YaVNExvCnYzYPZBAiQJX1ZZEYlmbyGNAANQqbxcaux2u8h8qANlM+BYc/ZTD/KidxbqPojNzs7C4XBgYWFBpGDnzp3DpC8Aa60dVdUWkQqyzM/PIxAIuEOhkPqlMXA6s38goeHUJxaLCVKopxFQlhw3A5ApKA95io0iBeceRJAb6sLgHDx7TozpQVF7wFro7e1VW0Amk8Hw8LDaMxbllkt5XP+Z7ZVKXkkc8H/cKID/ApKiMoGhOkegAAAAAElFTkSuQmCC;" vertex="1" parent="1">
          <mxGeometry x="60" width="30" height="10" as="geometry" />
        </mxCell>
        <mxCell id="6luIKK2zBfAn_R2tf_91-150" value="" style="shape=image;verticalLabelPosition=bottom;labelBackgroundColor=default;verticalAlign=top;aspect=fixed;imageAspect=0;image=data:image/png,iVBORw0KGgoAAAANSUhEUgAAAGAAAAAgCAYAAADtwH1UAAAAAXNSR0IArs4c6QAAAARnQU1BAACxjwv8YQUAAAAJcEhZcwAADsEAAA7BAbiRa+0AAAevSURBVGhD7ZpbaFv3Hce/sSRL8kWyLBtbthxHsh1fQorTxpuXZF28uJR1gxXSBkJHN5oyShiUsYwNAmMPe9tTXkoflrGnZmwwVrb1YVUD29KYXNo1axInSuz4fkskW7Yuvso735/OcU6NL5KmI1HYB/78Lzr+/27/8z+//zneA2BdKV8qXu49oba+yJ8DH6mtLw9ZBaBQDqBcm92O2uoqdeSLLMTjCD0J5UWPrchGbkYBSMcBF3//B7WXO/RynU6njNnsNqn17N3bgLt3+jEwNIzFRCLngTBiAaQVgEI6gLL3KfPW1NagtLQUgwODytyL0qcOHIvFYnIt29RhZGRUrhtS6lzpYJT9JqX8MtXcGs0BTU0+1NTUYGpyCpG5CGw2G8wWsxi9srIi166urqGjox2O8nKsJ5Oodbtxb/CR/JYNeucTj6dW5C4sLGzo0NDgFbnFxcXiAGI2m7G2tgaLyZQzHYyyf8cAFNIBL379GFr8itGqbBKJzIsOnHtpaUl0YF1dVYViiwWJeALr6+tyBxCzyQy7zQpnWRkGRkZkLBPyYf+2ASi0Aw7ub0Fr63619xTqQDg39aAODvsalhPzUsYnw7IySSgUki0jFApnvAjyZf+2ASikA2h8g8eDCleFOpKCez/nZh2JRMQ5niob3n7zOLqf3Sfl1u0hROOrcl2ZYjh1sBVb4VbmymQR5Mv+LQNQaAc0N+6Fy+EQ+ZpMMj42LmOs6xvqZezcD49JrbGVDlylfFCnuwjyaX+RWm8LhWlMT01v1NqtSeF62HeVPf07XseMwW61Sj8TOIcmU0Ovz3bodWDhKnQqAT375pmAekna6OUZYf+OAeAkhXSAXrYmd3Q0iOWViLR30oU6lJuWMDQ8IqW0sjLwzm8u9qo/pwXnN9r+HQNQKAc0tbYGEsq2oUE51IVyG71J1LnjmJ+flm1A4z/9wY2i8cZLB/A4PJaV80k+7N8yAIV2AK+devxY7T11RGThHn7x47fwvW/2wLTyaGMbIO99cA0//9W7Sn1dHUlhtz6R+dRuWuTT/i0DUGgHkM1O0FhJLOHjvpv42Q9eU0dS/OinFzA+sgffPXVOHQGWo3G1lRn5tH/bLaiQDiBUmitHr0OxxYkbVz+B02aH1eXAvvrUawHirbLCW57AJx/8TvrUc+jOQ2lnQ77s3zYAhXYA2ayDs7wNv37vLzhQ60E4OIyTJ/wyLsx8jLe+XY3G1T6Rzd//MfgQ3qbDGWc+JF/27/gq4san//YfPXo0EI9G/RbleG2zVuHv1/6J0892AskknuvywaTm6IiNwjF3HRXJMfgPHhEHvH/tOvZUNQeu3bir81Rm6HVYVQ4+VpjxTJ0D69GE6GB1liG5uiZlb/Nz8B3oxvC9Adz+7C5uLdkCF975Y8bbn0Y+7E/rbSjTp1g4LIasL83i7LEWOO12uPz1qNzfKNeQ5YXULTc2OIKHt4P4MLTyPzlAj5bCeZJjMl9HjQdW8zJcvtSBjMw+Gpf6ztQkJixVOZVtlP1pfw8opAP0HD9+XF52EYeFmckKSktKYFUPOnLqjcfx18A96ecKo+zP+ItYoRxAjhw5gvr6erjdbpETjUYxOzsr/bq6OrlmYmJCydVHcfXqVennmlzbv+NBbDMUXl1djebmZimmsjYswqvkWi1we7ulsB2OV6p/kXv4foU6EBpNPfie57GSNo6NjcFpfiC/GQEXQEVFBRoaGnJmf9oBoPOfP1wuq40OcChH63w7QKOpNnUACofDosuhQ4fg8/kkOCd7lIdzHqBc+oJleno6a/vTCgAjT4Gvv1QsNW+z4eFhqQvhgGPtqb12bm5Oaj0ffeZRW8awvLwsX8Boe/fBYll8JcoWlK39aQWgo8aBrzzjw5XgVzecz9esjP5mjHSA1bSEFk+56NHhr5b+Zk50TqotY2DQ+ezhiu/yD+KV7zyPZq8Tsfkp+T1T+3cNwMkXffjJN/bj3Otfw/e/1YKSRBgzEw9lH+Tq34yRDqgsCeON7nrRg/qwz21IK3Hl4XfhTz60t7dndfhKB3561O6C9//lF10unD+lnD1SIjO1f9cA8CQ5EHqC2MyslMMVcZRaY2Ks3vh8OIC63Lxxa+Oll9nqkruR5f79+5L9eDyewMWLmb97ShduN7wLuOK5GHjipV+IZn8mpJWGvn321cALbosY9dubnyOcSG09XAlcEUzL+IGaLC4u4vz58y/09PR8KAM5hroMBD/v5TdYZ+1heL1KFqIQDAa5Bxvq/DNnzgT6+/t7GYQ6Vwyn2nxyDmD+/27fp4iu1sp13Kb7+vqkvRtpnwM0w81K6kXofK62ycnJ3srKSsnDmRUxE+CKvHz5slxnBF1dXXIe4ENPy/+vXLliWO6vh9lgW1ubbL/BW3+TrYhnAaaeTFEJX1NzR1CCJf2dSDsN5amupvFogLcZCx9CXG0MwszMDIaGhkRwMpmEy+XiNqT+Ze7hQ5ALgPK47bBo/5tjJAw8Vz/vesouKm1FdM0D+oXbLv3AUlRUhM7OzrS24YxPwqdPn96Y+NKlS3K7c+zBgwe9drtdPr9ROWVrCGi/5xq9PA0j5WnsJncr3+xGxgHYDr1wkg9nqE3BaHkauZabswD8n2wA/guzxTCcH4laugAAAABJRU5ErkJggg==;" vertex="1" parent="1">
          <mxGeometry x="30" width="30" height="10" as="geometry" />
        </mxCell>
        <mxCell id="6luIKK2zBfAn_R2tf_91-151" value="" style="shape=image;verticalLabelPosition=bottom;labelBackgroundColor=default;verticalAlign=top;aspect=fixed;imageAspect=0;image=data:image/png,iVBORw0KGgoAAAANSUhEUgAAAGAAAAAgCAYAAADtwH1UAAAAAXNSR0IArs4c6QAAAARnQU1BAACxjwv8YQUAAAAJcEhZcwAADsEAAA7BAbiRa+0AAAWXSURBVGhD7ZrfS6RVGMfPZCv5I3c1dSg1HWnWhjJliZZkF7a82KtCWCi2my67LOg2YukyCLY/oG6Cli6WhIVqAxdiw+gixBWZJGRy1CLX0UmzLG2n+T6+z+zx+J7znvM6875u9YHDOeed9zw/vs95f4kJIUSp3P4nJu7JApw/e8YbHeT6za+90b1BqALEJQD7TXV3U+9HbmmJ+iji8MPVr1MB4hJA9tub6qWxiYXcQs3j0OHq16oAcQoA36rfTOZxkc1+783uoh7nOKoRA6hF/nXldmlv6A8LMDw0KE60nqBjSHR1dZXGMnwc5/X1PioSd0riofJ4Pp/3znDDRXwA33JsiKNaMdQqf2MB4hRA5xv4Jc90dLRTq2UM1cz/Pq8/gEmAIOTzsB52YM8V2TfgxHVx8HFVINWODVHlry0AiEsATh7gfiojx6A2oPrm9WE2QRT5+z6E5eojAdWALgDgJwDbsX0gygUwBW8LF8HVfxT5GwsA4hQA/Nv9G29BRwEOnntb/NZBVIh7lAgsQJwCvH66k3rZRlAcfueyHdsrQIZtBPlV8Vvnl7+xAHEJgHNwroqfbbUH8pgJI34U+fsW4CgIgHPf+vyaN9uPzrefXwA7rr6jyt/4p4gL51Oio+20NwvP7bVvxdXrOW/mhvxADINr4WWiyN/4JZydL9JXXGtLi3fEHQhw7cYtb+YOviARQ3FjwykO+MWasOKDKPIP/FtQnAIwyfIV8FepJH7/bbMSB+zrepyz+fcdWrO4uOhZCUet87d6DUUyaDCKBkw9Gq85LCMjI6Kzc+8hBnuPPJYm+5cvnPLt8Tv7xTqsPyycC+yjAVOPxmuCCCwAEhgYGKAxDNoKgDVohxGAxW9tbaU5xnNzc+Tj48Jx8cy55/b1OI7fuWBYd9gicP5oLvkDm/yNtyAWoKGhQRQKBRrny5dk6uRJsXCsU3T1pcTMHw9U+tL9xyoCYE13+dZRX18vGhsbQ90Kenp6yAZaLpcTTU1N1La3t8XKysqBhuP4HWxtbYnh4WGxs7NDsYfxz+LD/0b5dlJXV2edP/y3t7fTmra2Nq1/41vQlfdaxCc3n6cxEoRhFwYHB6lfKu8MBDY5OUlzG7j4vPs5MZ5DFBX4Aevr6xQvxJPnrv5ZfDAzM0O9LbJeL5+9IS6+uUFjFe0VgAB+LDzpzfZ2FHYXBMDuTqfTIplM7mvYbfiNdyh2/+XXZsV3+Secr4R33/hV/LR5ypsJ2sXwz1eWHy3lhyR2KvzzDgRY88q5r8TVL/+keRCy+O9c/EZ89EWCdr5L/qwXmM2ntFeB9hnw8IM/ixf6dr3ZfnQCqMex896+8iztzA8vvSg+eOlpercOAgLwlQdgJwzyOtiD3SAQH+JEvIgb8av+bfNnoCP09ENbAHw4fJadpcW6QgSBq4DFB8mn0tQHgWA/ff9VWnfm+G2yo4NvO35gHdbDDuzpRFDhOLkIJv8mWDvoqPsQM74FcRHQdJgEwD0X9+71+SVqv9z6wfvFDqyBb753+wkB+yp8HtZhPey4gDg55qBnlyl/1s70VwCr/4oAfPnKDyYwMTEhRkdHvdndBy7gwOXbjikYGV7D58M/HmpqEUzHVP+uvoHsH4TJ34RTAcIKUC3GxsYqb0FA3v38xgNwzx4fH/dm1aFW+Vt9CQM2hkRRcU6YncMpt1qID9gXdiA/GNkP5rwzVUGqAfzArpwnYF+qLrb5WxcAwBknqQrwX0XeAAD6uGyAwD/GyeDLtL+/n8ZwgnddvNuiJRIJeldHm5qaonOqTXNzsyiVSnSfXVtbE8Vikf4HB8d3d3cpJnwHoDf971BYdHlCF7zz41sA4Kvd9nvH+hkAMpmMGBoaojESXF5eFtlsluZRgRgY2bfueBTAd1dXV+XDb3p62jIGIf4BF5j5yRmMvuMAAAAASUVORK5CYII=;" vertex="1" parent="1">
          <mxGeometry width="30" height="10" as="geometry" />
        </mxCell>
        <mxCell id="6luIKK2zBfAn_R2tf_91-152" value="" style="shape=image;verticalLabelPosition=bottom;labelBackgroundColor=default;verticalAlign=top;aspect=fixed;imageAspect=0;image=data:image/png,iVBORw0KGgoAAAANSUhEUgAAAGAAAAAgCAYAAADtwH1UAAAAAXNSR0IArs4c6QAAAARnQU1BAACxjwv8YQUAAAAJcEhZcwAADsEAAA7BAbiRa+0AAAgNSURBVGhD7ZkLTFV1HMd/19hyyAS6loZMEoFJaXOgUUoSixy5JVm52WPOZtpcc26p9Fgr7C04t9aapjk2p+l0odQKZhQ9hOQhOmUCFy5Bi9cKEAvECm7n+7vndz3cnXPuOVcetvXZ/pz/4/z/v+f/f865OIjIo5T/mSD+swH44pl36ceoy5Se/iCVln5D97dPpUcOvqqO/ncIOgAT4YDs7JdZXmxsLDU3N1NmZoY6QlRcXOLrhz65ue+rI2PDaNqPAFgqigM8RUVfexoa3HzVou3HfXrzgy1auYK2DvzHxloPXLVo+23K1e0cUSbSAVhDEBmyvllbGC0dxsr+m5Q/OUoxRFmEdux4j+LiYqm7u5eczkhyuZp5qw8Pk24b96WkJNNDD2XQlStXqazslLqaPbDN56xI9a1bVXWGmpqaKWVGNMV1D5Hz0lUidydf4xyh5JzhpOLTp6m3t5f1hV4REZG02pFIh89/o65qj7G23/QZAAeEPL2Iz9aEhFg+Z0Fm4nyi+nauj2BuFBXXXeAqzmdR7J9DVbbPRzljYTyA7EyHk2UERNGt2NPte0a89NIrQZ3R42G/YQAm2gFiPNbwybaJ6ID5dpNgvOyfpF51wRMejHAAIh+oKOB+zAOyjlXEeHHeA5XKUaMwWOFdW66BEB2wDtbDunYYD/t1A3CjOABbGLInp1zLOsgeXt2rq4N/H9rQAevYYTztN90BE+UAsH1KKp+f/kC2Fq1M6KnXxjpYzy7jYb9hAG4EB1SeeFmtXTMchE6P5qtV4AS7jJf9pjtgIh2Q2/4GrX/8abXl5aOsfC55976l9lhD6xQ7jIb9CIIcYXoYBuBGcICA+R8e3kWb8r+iLzun0vwfj6gjY0cg+ydvnsJ6GWW9VUx3gODvgE1PvsiC/BGFRoPsqO2077NDasvLzQk387Xng0q+jhf+9ttNADOf6AYA76tJ/Y8bOkAI5HCMI5PsAvkljec5CLiCFwqfJcctRE8MeKgnd58vA83Qysc6dr4DrCSA1V2AupF80x1g5IBP3tnnEyzotZuiCtWWfSQIGfF3sxP7Wn+jAddBWh55JxcABwDIkqJtY57YYMf5glkCCGaJoNXJiIA/RYgDcB6Gx9xKnUsv8lhswzIa/KCf63r03ufiDIIRIFgnpKSk8HX5gn98Opg9BAe6fuVgQfZX50K4r6Kigq92ENuBkf1a9HxhJQEC/j9gNBzwWnxW0M5PTfW+vm3YsIGO7HqKHluYRM6YRNbDH8jtbq2jguoaWv3ip7R3717uP3XqVNBBeLvRu4vHKgFMAwAHTJ8+neLj4yfEARKAefPmUV1dHa1bt451CARk79+/nxITE6m2tva65YNg7W9sbKSuri5D+QEDcL0OAME6QRIAFBYWKp/1xfzL5LZt2zgp3tywgMfA63vPsbF5eXn84ZOZmUlZWVk8ZuYAI7S2g7FKAMMAZGdnU319PRsKdu7cadsBW7duZQOOHz9u2wlaB8j8AwcOUEJCAo+7XC7fDgPIUO3YmjVrOHgrV64MKgEk+DI/WPsB+ufOnUu5ubnc9gcBGFG2P5/subBvvaehocGzYsUKLopC3BZQ37Jli6/4j2FOfn4+14uKini+niyjopWH9dHGOlo5emjlYZ70BSNf5MEO2KOVjbqZ/ZgvvkMb/oRf/eV4nxImbNy4kXJyvP80k99GkGkoyAp/kH24Dxm7du1a7sO9paWlljNQUVQ5a71vICAjI4MzGGugpKencz+yURDdMC5gnvDJc3dTgfIgfePjM2qPOWlpaZzFAPrv2bPHlv0APhDfGaH7L8nvznTQjCgHVVy8RC0tLXT06FFHdHR0jhJcOnv2LA0NDVFTUxMNDw9Td3c3l6qqKu4rKCjgOXdFuintfuVIuNpCrl/+4nllZWWqBHPSF0bRqs1byBn2B9UefJdKvj1Elz2307Rp03zOB/jXoxRh9uzZLH9wcJA8bYXk7KymxHvuoNvumk/fl5xk26ywZMkSiomJIWfIBbahvbaYXB0Oy/a3trYi4RwzZ87MwRz3z+W6wTfcAd6bvROwneRhqHWARFoLxrVZCKKpkqb02f+fLF7p8EZxpmMmt7WZjwz0R7IP9+H5xfOU+bFLl9r+ARH6RtN8pTZynlX74S/4zejcFwL+U15ZxPcmsmrVKjY+MjKS++Pi4kYUZASyEVnYVv8tJYTfSjeFDFHzDz9QXXuH5ezDfZN6a6n8p9M+5+MoBEbOB06n06fDokWLqLq6mjr+nEottV9z9ls9fgB24Yy//6KwaZH0+0U31dRdoNSH1/EYdDCyH76JiIhg2WFhYVxva2vjeXpY+g4AVhygPf9A5YnX1JrsKHuIfLxx4DyHbFkfdX+0Y6iXlJQEfA83A88i4Z5H31Zr1n2we/duvprJN90ByrnPUYQDIBQPJTnrtOefFAjGfXImf17awBl4zn3FNAuMwBxk0KxZs3jt5ORk3+5DtvsXyUJw7NgxvuL9PRjngyshs/jZAxuwo4AEV89++Aa2w0/wUV9fH/X09FB/f7+h/ZZ+ipD38cWLF5tGHkA5iTwINvu0iA5APozMwHs7CPYLWIv2FAA4CRAEYOaL8vJyS98fAQMAtEHQQwwGsuWF63WAAB1AUlISX0FNTY1a0+8fbdlAjkTBzCdWEsBSAACUCA8Ppzlz5qg9ylvKwAC/bfgzWobrsWzZtV8hT548Cf0Zpd9nh9Kv1kYfbTAEfOWGhoaqLSK3283HT2A/EP0LuxWSFaqJ2KwAAAAASUVORK5CYII=;" vertex="1" parent="1">
          <mxGeometry x="250" y="220" width="30" height="10" as="geometry" />
        </mxCell>
      </root>
    </mxGraphModel>
  </diagram>
</mxfile>
